<mxfile host="app.diagrams.net" modified="2024-02-01T14:23:02.343Z" agent="Mozilla/5.0 (Windows NT 10.0; Win64; x64) AppleWebKit/537.36 (KHTML, like Gecko) Chrome/110.0.0.0 Safari/537.36" etag="GxlfTTGv9YsmlFh6A1Jb" version="23.1.0" type="device">
  <diagram name="Página-1" id="bHcrREO-uS3KybAE6obh">
    <mxGraphModel dx="2959" dy="1738" grid="1" gridSize="10" guides="1" tooltips="1" connect="1" arrows="1" fold="1" page="1" pageScale="1" pageWidth="827" pageHeight="1169" math="0" shadow="0">
      <root>
        <mxCell id="0" />
        <mxCell id="1" parent="0" />
        <mxCell id="qGmY4c33bjeEbuAmrIbD-1" value="" style="rounded=0;whiteSpace=wrap;html=1;fillColor=#ffe6cc;strokeColor=#d79b00;" parent="1" vertex="1">
          <mxGeometry x="-810" y="-80" width="1180" height="875" as="geometry" />
        </mxCell>
        <mxCell id="qGmY4c33bjeEbuAmrIbD-220" value="PARQUENATURAL(&lt;font color=&quot;#ff1919&quot;&gt;&lt;u&gt;IDParque&lt;/u&gt;&lt;/font&gt;, fechaDeclaracion, nombre)" style="text;html=1;strokeColor=none;fillColor=none;align=center;verticalAlign=middle;whiteSpace=wrap;rounded=0;" parent="1" vertex="1">
          <mxGeometry x="-760" y="-50" width="540" height="30" as="geometry" />
        </mxCell>
        <mxCell id="qGmY4c33bjeEbuAmrIbD-221" value="COMPONE(&lt;font color=&quot;#ff1919&quot;&gt;&lt;i&gt;&lt;u&gt;IDParque&lt;/u&gt;&lt;/i&gt;&lt;/font&gt;, &lt;font color=&quot;#ff1919&quot;&gt;&lt;i&gt;&lt;u&gt;IDArea&lt;/u&gt;&lt;/i&gt;&lt;/font&gt;)" style="text;html=1;strokeColor=none;fillColor=none;align=center;verticalAlign=middle;whiteSpace=wrap;rounded=0;" parent="1" vertex="1">
          <mxGeometry x="-190" y="60" width="540" height="30" as="geometry" />
        </mxCell>
        <mxCell id="qGmY4c33bjeEbuAmrIbD-222" value="AREA(&lt;font color=&quot;#ff1919&quot;&gt;&lt;u&gt;IDArea&lt;/u&gt;&lt;/font&gt;, nombre, extension)" style="text;html=1;strokeColor=none;fillColor=none;align=center;verticalAlign=middle;whiteSpace=wrap;rounded=0;" parent="1" vertex="1">
          <mxGeometry x="-180" y="170" width="540" height="30" as="geometry" />
        </mxCell>
        <mxCell id="qGmY4c33bjeEbuAmrIbD-223" value="RESIDE(&lt;font color=&quot;#ff1919&quot;&gt;&lt;u&gt;&lt;i&gt;IDArea&lt;/i&gt;&lt;/u&gt;&lt;/font&gt;, &lt;font color=&quot;#ff1919&quot;&gt;&lt;u&gt;&lt;i&gt;denCientifica&lt;/i&gt;&lt;/u&gt;&lt;/font&gt;)" style="text;html=1;strokeColor=none;fillColor=none;align=center;verticalAlign=middle;whiteSpace=wrap;rounded=0;" parent="1" vertex="1">
          <mxGeometry x="-190" y="290" width="540" height="30" as="geometry" />
        </mxCell>
        <mxCell id="qGmY4c33bjeEbuAmrIbD-224" value="VEGETAL(&lt;u style=&quot;color: rgb(255, 25, 25);&quot;&gt;denCientifica&lt;/u&gt;&lt;u style=&quot;font-style: italic; color: rgb(255, 25, 25);&quot;&gt;,&lt;/u&gt; nºIndividuos, denVulgar, floracion, periodoProd)" style="text;html=1;strokeColor=none;fillColor=none;align=center;verticalAlign=middle;whiteSpace=wrap;rounded=0;" parent="1" vertex="1">
          <mxGeometry x="-290" y="422.5" width="540" height="30" as="geometry" />
        </mxCell>
        <mxCell id="qGmY4c33bjeEbuAmrIbD-225" value="ANIMAL(&lt;u style=&quot;color: rgb(255, 25, 25);&quot;&gt;denCientifica&lt;/u&gt;&lt;u style=&quot;font-style: italic; color: rgb(255, 25, 25);&quot;&gt;,&lt;/u&gt; nºIndividuos, denVulgar, periodoCelo, tipoAlimentacion)" style="text;html=1;strokeColor=none;fillColor=none;align=center;verticalAlign=middle;whiteSpace=wrap;rounded=0;" parent="1" vertex="1">
          <mxGeometry x="-310" y="485" width="540" height="30" as="geometry" />
        </mxCell>
        <mxCell id="qGmY4c33bjeEbuAmrIbD-226" value="SEALIMENTADE(&lt;font color=&quot;#ff1919&quot;&gt;&lt;u&gt;&lt;i&gt;denCientifica&lt;/i&gt;&lt;/u&gt;&lt;/font&gt;, &lt;font color=&quot;#ff1919&quot;&gt;&lt;u&gt;&lt;i&gt;denCientificaAlimento&lt;/i&gt;&lt;/u&gt;&lt;/font&gt;)" style="text;html=1;strokeColor=none;fillColor=none;align=center;verticalAlign=middle;whiteSpace=wrap;rounded=0;" parent="1" vertex="1">
          <mxGeometry x="-290" y="660" width="540" height="30" as="geometry" />
        </mxCell>
        <mxCell id="qGmY4c33bjeEbuAmrIbD-228" value="ESTA(&lt;font color=&quot;#ff1919&quot;&gt;&lt;u&gt;&lt;i&gt;IDParque&lt;/i&gt;&lt;/u&gt;&lt;/font&gt;, &lt;font color=&quot;#ff1919&quot;&gt;&lt;u&gt;&lt;i&gt;nombreCA&lt;/i&gt;&lt;/u&gt;&lt;/font&gt;)&amp;nbsp;" style="text;html=1;strokeColor=none;fillColor=none;align=center;verticalAlign=middle;whiteSpace=wrap;rounded=0;" parent="1" vertex="1">
          <mxGeometry x="-760" y="25" width="540" height="30" as="geometry" />
        </mxCell>
        <mxCell id="qGmY4c33bjeEbuAmrIbD-229" value="COMUNIDADAUTONOMA(&lt;font color=&quot;#ff1919&quot;&gt;&lt;u&gt;nombreCA&lt;/u&gt;&lt;/font&gt;, nºParques, superficieTotal, &lt;font color=&quot;#ff1919&quot;&gt;&lt;i&gt;IDOrganismo&lt;/i&gt;&lt;/font&gt;)&amp;nbsp;" style="text;html=1;strokeColor=none;fillColor=none;align=center;verticalAlign=middle;whiteSpace=wrap;rounded=0;" parent="1" vertex="1">
          <mxGeometry x="-750" y="95" width="540" height="30" as="geometry" />
        </mxCell>
        <mxCell id="qGmY4c33bjeEbuAmrIbD-230" value="Área" style="whiteSpace=wrap;html=1;align=center;fillColor=#97D077;" parent="1" vertex="1">
          <mxGeometry x="2090" y="20" width="100" height="40" as="geometry" />
        </mxCell>
        <mxCell id="qGmY4c33bjeEbuAmrIbD-231" value="" style="rounded=0;whiteSpace=wrap;html=1;fillColor=none;strokeColor=#000000;" parent="1" vertex="1">
          <mxGeometry x="2100" y="30" width="80" height="20" as="geometry" />
        </mxCell>
        <mxCell id="qGmY4c33bjeEbuAmrIbD-232" value="Parque Natural" style="whiteSpace=wrap;html=1;align=center;fillColor=#97D077;" parent="1" vertex="1">
          <mxGeometry x="1550" y="20" width="100" height="40" as="geometry" />
        </mxCell>
        <mxCell id="qGmY4c33bjeEbuAmrIbD-233" value="" style="triangle;whiteSpace=wrap;html=1;rotation=90;fillColor=#7EA6E0;" parent="1" vertex="1">
          <mxGeometry x="1600" y="870" width="40" height="60" as="geometry" />
        </mxCell>
        <mxCell id="qGmY4c33bjeEbuAmrIbD-234" value="Nombre" style="ellipse;whiteSpace=wrap;html=1;align=center;fillColor=#FFD966;" parent="1" vertex="1">
          <mxGeometry x="1550" y="-50" width="100" height="40" as="geometry" />
        </mxCell>
        <mxCell id="qGmY4c33bjeEbuAmrIbD-235" value="&lt;u&gt;IDParque&lt;/u&gt;" style="ellipse;whiteSpace=wrap;html=1;align=center;fillColor=#FFD966;" parent="1" vertex="1">
          <mxGeometry x="1690" y="-50" width="100" height="40" as="geometry" />
        </mxCell>
        <mxCell id="qGmY4c33bjeEbuAmrIbD-236" value="FechaDeclaración" style="ellipse;whiteSpace=wrap;html=1;align=center;fillColor=#FFD966;" parent="1" vertex="1">
          <mxGeometry x="1410" y="-50" width="100" height="40" as="geometry" />
        </mxCell>
        <mxCell id="qGmY4c33bjeEbuAmrIbD-237" value="Nombre" style="ellipse;whiteSpace=wrap;html=1;align=center;fillColor=#FFD966;" parent="1" vertex="1">
          <mxGeometry x="1955" y="-50" width="100" height="40" as="geometry" />
        </mxCell>
        <mxCell id="qGmY4c33bjeEbuAmrIbD-238" value="Extensión" style="ellipse;whiteSpace=wrap;html=1;align=center;fillColor=#FFD966;" parent="1" vertex="1">
          <mxGeometry x="2210" y="-50" width="100" height="40" as="geometry" />
        </mxCell>
        <mxCell id="qGmY4c33bjeEbuAmrIbD-239" value="" style="triangle;whiteSpace=wrap;html=1;rotation=90;fillColor=#7EA6E0;" parent="1" vertex="1">
          <mxGeometry x="2890" y="120" width="40" height="60" as="geometry" />
        </mxCell>
        <mxCell id="qGmY4c33bjeEbuAmrIbD-240" value="Tipo" style="ellipse;whiteSpace=wrap;html=1;align=center;fillColor=#FFD966;" parent="1" vertex="1">
          <mxGeometry x="2960" y="90" width="100" height="40" as="geometry" />
        </mxCell>
        <mxCell id="qGmY4c33bjeEbuAmrIbD-241" value="Animal" style="whiteSpace=wrap;html=1;align=center;fillColor=#97D077;" parent="1" vertex="1">
          <mxGeometry x="3000" y="230" width="100" height="40" as="geometry" />
        </mxCell>
        <mxCell id="qGmY4c33bjeEbuAmrIbD-242" value="Vegetal" style="whiteSpace=wrap;html=1;align=center;fillColor=#97D077;" parent="1" vertex="1">
          <mxGeometry x="2750" y="230" width="100" height="40" as="geometry" />
        </mxCell>
        <mxCell id="qGmY4c33bjeEbuAmrIbD-243" value="Floración" style="ellipse;whiteSpace=wrap;html=1;align=center;fillColor=#FFD966;" parent="1" vertex="1">
          <mxGeometry x="2690" y="320" width="100" height="40" as="geometry" />
        </mxCell>
        <mxCell id="qGmY4c33bjeEbuAmrIbD-244" value="PeríodoProd" style="ellipse;whiteSpace=wrap;html=1;align=center;fillColor=#FFD966;" parent="1" vertex="1">
          <mxGeometry x="2810" y="320" width="100" height="40" as="geometry" />
        </mxCell>
        <mxCell id="qGmY4c33bjeEbuAmrIbD-245" value="TipoAlimentación" style="ellipse;whiteSpace=wrap;html=1;align=center;fillColor=#FFD966;" parent="1" vertex="1">
          <mxGeometry x="3065" y="320" width="100" height="40" as="geometry" />
        </mxCell>
        <mxCell id="qGmY4c33bjeEbuAmrIbD-246" value="Herbívora" style="ellipse;whiteSpace=wrap;html=1;align=center;fillColor=#FFD966;" parent="1" vertex="1">
          <mxGeometry x="2950" y="410" width="100" height="40" as="geometry" />
        </mxCell>
        <mxCell id="qGmY4c33bjeEbuAmrIbD-247" value="Carnívora" style="ellipse;whiteSpace=wrap;html=1;align=center;fillColor=#FFD966;" parent="1" vertex="1">
          <mxGeometry x="3180" y="410" width="100" height="40" as="geometry" />
        </mxCell>
        <mxCell id="qGmY4c33bjeEbuAmrIbD-248" value="Omnívora" style="ellipse;whiteSpace=wrap;html=1;align=center;fillColor=#FFD966;" parent="1" vertex="1">
          <mxGeometry x="3065" y="410" width="100" height="40" as="geometry" />
        </mxCell>
        <mxCell id="qGmY4c33bjeEbuAmrIbD-249" value="PeríodoCelo" style="ellipse;whiteSpace=wrap;html=1;align=center;fillColor=#FFD966;" parent="1" vertex="1">
          <mxGeometry x="2950" y="320" width="100" height="40" as="geometry" />
        </mxCell>
        <mxCell id="qGmY4c33bjeEbuAmrIbD-250" value="Se alimenta de" style="shape=rhombus;perimeter=rhombusPerimeter;whiteSpace=wrap;html=1;align=center;fillColor=#EA6B66;" parent="1" vertex="1">
          <mxGeometry x="3260" y="220" width="120" height="60" as="geometry" />
        </mxCell>
        <mxCell id="qGmY4c33bjeEbuAmrIbD-251" value="Consta" style="shape=rhombus;perimeter=rhombusPerimeter;whiteSpace=wrap;html=1;align=center;fillColor=#EA6B66;" parent="1" vertex="1">
          <mxGeometry x="1560" y="660" width="120" height="60" as="geometry" />
        </mxCell>
        <mxCell id="qGmY4c33bjeEbuAmrIbD-252" value="Personal" style="whiteSpace=wrap;html=1;align=center;fillColor=#97D077;" parent="1" vertex="1">
          <mxGeometry x="1570" y="780" width="100" height="40" as="geometry" />
        </mxCell>
        <mxCell id="qGmY4c33bjeEbuAmrIbD-253" value="&lt;u&gt;DNI&lt;/u&gt;" style="ellipse;whiteSpace=wrap;html=1;align=center;fillColor=#FFD966;" parent="1" vertex="1">
          <mxGeometry x="1450" y="710" width="100" height="40" as="geometry" />
        </mxCell>
        <mxCell id="qGmY4c33bjeEbuAmrIbD-254" value="&lt;b&gt;NºSS&lt;/b&gt;" style="ellipse;whiteSpace=wrap;html=1;align=center;fillColor=#FFD966;" parent="1" vertex="1">
          <mxGeometry x="1710" y="850" width="100" height="40" as="geometry" />
        </mxCell>
        <mxCell id="qGmY4c33bjeEbuAmrIbD-255" value="Nombre" style="ellipse;whiteSpace=wrap;html=1;align=center;fillColor=#FFD966;" parent="1" vertex="1">
          <mxGeometry x="1440" y="850" width="100" height="40" as="geometry" />
        </mxCell>
        <mxCell id="qGmY4c33bjeEbuAmrIbD-256" value="Dirección" style="ellipse;whiteSpace=wrap;html=1;align=center;fillColor=#FFD966;" parent="1" vertex="1">
          <mxGeometry x="1710" y="720" width="100" height="40" as="geometry" />
        </mxCell>
        <mxCell id="qGmY4c33bjeEbuAmrIbD-257" value="Teléfono" style="ellipse;whiteSpace=wrap;html=1;align=center;fillColor=#FFD966;" parent="1" vertex="1">
          <mxGeometry x="1440" y="780" width="100" height="40" as="geometry" />
        </mxCell>
        <mxCell id="qGmY4c33bjeEbuAmrIbD-258" value="Domicilio" style="ellipse;whiteSpace=wrap;html=1;align=center;fillColor=#FFD966;" parent="1" vertex="1">
          <mxGeometry x="1300" y="760" width="100" height="40" as="geometry" />
        </mxCell>
        <mxCell id="qGmY4c33bjeEbuAmrIbD-259" value="Móvil" style="ellipse;whiteSpace=wrap;html=1;align=center;fillColor=#FFD966;" parent="1" vertex="1">
          <mxGeometry x="1300" y="810" width="100" height="40" as="geometry" />
        </mxCell>
        <mxCell id="qGmY4c33bjeEbuAmrIbD-260" value="Gestión" style="whiteSpace=wrap;html=1;align=center;fillColor=#97D077;" parent="1" vertex="1">
          <mxGeometry x="1260" y="990" width="100" height="40" as="geometry" />
        </mxCell>
        <mxCell id="qGmY4c33bjeEbuAmrIbD-261" value="Investigador" style="whiteSpace=wrap;html=1;align=center;fillColor=#97D077;" parent="1" vertex="1">
          <mxGeometry x="1450" y="990" width="100" height="40" as="geometry" />
        </mxCell>
        <mxCell id="qGmY4c33bjeEbuAmrIbD-262" value="Conservación" style="whiteSpace=wrap;html=1;align=center;fillColor=#97D077;" parent="1" vertex="1">
          <mxGeometry x="1690" y="990" width="100" height="40" as="geometry" />
        </mxCell>
        <mxCell id="qGmY4c33bjeEbuAmrIbD-263" value="Vigilancia" style="whiteSpace=wrap;html=1;align=center;fillColor=#97D077;" parent="1" vertex="1">
          <mxGeometry x="1840" y="990" width="100" height="40" as="geometry" />
        </mxCell>
        <mxCell id="qGmY4c33bjeEbuAmrIbD-264" value="Comunidad Autónoma" style="whiteSpace=wrap;html=1;align=center;fillColor=#97D077;" parent="1" vertex="1">
          <mxGeometry x="1570" y="340" width="100" height="40" as="geometry" />
        </mxCell>
        <mxCell id="qGmY4c33bjeEbuAmrIbD-265" value="Organismo" style="whiteSpace=wrap;html=1;align=center;fillColor=#97D077;" parent="1" vertex="1">
          <mxGeometry x="1570" y="560" width="100" height="40" as="geometry" />
        </mxCell>
        <mxCell id="qGmY4c33bjeEbuAmrIbD-266" value="Hay" style="shape=rhombus;perimeter=rhombusPerimeter;whiteSpace=wrap;html=1;align=center;fillColor=#EA6B66;" parent="1" vertex="1">
          <mxGeometry x="1560" y="440" width="120" height="60" as="geometry" />
        </mxCell>
        <mxCell id="qGmY4c33bjeEbuAmrIbD-267" value="NºEntrada" style="ellipse;whiteSpace=wrap;html=1;align=center;fillColor=#FFD966;" parent="1" vertex="1">
          <mxGeometry x="1260" y="1070" width="100" height="40" as="geometry" />
        </mxCell>
        <mxCell id="qGmY4c33bjeEbuAmrIbD-268" style="edgeStyle=orthogonalEdgeStyle;rounded=0;orthogonalLoop=1;jettySize=auto;html=1;exitX=0.5;exitY=1;exitDx=0;exitDy=0;" parent="1" edge="1">
          <mxGeometry relative="1" as="geometry">
            <mxPoint x="1700" y="1110" as="sourcePoint" />
            <mxPoint x="1700" y="1110" as="targetPoint" />
          </mxGeometry>
        </mxCell>
        <mxCell id="qGmY4c33bjeEbuAmrIbD-269" value="Proyecto" style="whiteSpace=wrap;html=1;align=center;fillColor=#97D077;" parent="1" vertex="1">
          <mxGeometry x="2262.5" y="1177.5" width="100" height="40" as="geometry" />
        </mxCell>
        <mxCell id="qGmY4c33bjeEbuAmrIbD-270" value="Trabaja" style="shape=rhombus;perimeter=rhombusPerimeter;whiteSpace=wrap;html=1;align=center;fillColor=#EA6B66;" parent="1" vertex="1">
          <mxGeometry x="2040" y="1167.5" width="120" height="60" as="geometry" />
        </mxCell>
        <mxCell id="qGmY4c33bjeEbuAmrIbD-271" value="&lt;u&gt;CodProyecto&lt;/u&gt;" style="ellipse;whiteSpace=wrap;html=1;align=center;fillColor=#FFD966;" parent="1" vertex="1">
          <mxGeometry x="2262.5" y="1250" width="100" height="40" as="geometry" />
        </mxCell>
        <mxCell id="qGmY4c33bjeEbuAmrIbD-272" value="Presupuesto" style="ellipse;whiteSpace=wrap;html=1;align=center;fillColor=#FFD966;" parent="1" vertex="1">
          <mxGeometry x="2122.5" y="1250" width="100" height="40" as="geometry" />
        </mxCell>
        <mxCell id="qGmY4c33bjeEbuAmrIbD-273" value="PeríodoRealización" style="ellipse;whiteSpace=wrap;html=1;align=center;fillColor=#FFD966;" parent="1" vertex="1">
          <mxGeometry x="2382.5" y="1250" width="115" height="35" as="geometry" />
        </mxCell>
        <mxCell id="qGmY4c33bjeEbuAmrIbD-274" value="" style="endArrow=none;html=1;rounded=0;entryX=0;entryY=0;entryDx=0;entryDy=0;exitX=1;exitY=1;exitDx=0;exitDy=0;" parent="1" source="qGmY4c33bjeEbuAmrIbD-236" target="qGmY4c33bjeEbuAmrIbD-232" edge="1">
          <mxGeometry width="50" height="50" relative="1" as="geometry">
            <mxPoint x="1470" y="280" as="sourcePoint" />
            <mxPoint x="1520" y="230" as="targetPoint" />
          </mxGeometry>
        </mxCell>
        <mxCell id="qGmY4c33bjeEbuAmrIbD-275" value="" style="endArrow=none;html=1;rounded=0;entryX=0.5;entryY=0;entryDx=0;entryDy=0;exitX=0.5;exitY=1;exitDx=0;exitDy=0;" parent="1" source="qGmY4c33bjeEbuAmrIbD-234" target="qGmY4c33bjeEbuAmrIbD-232" edge="1">
          <mxGeometry width="50" height="50" relative="1" as="geometry">
            <mxPoint x="1470" y="280" as="sourcePoint" />
            <mxPoint x="1520" y="230" as="targetPoint" />
          </mxGeometry>
        </mxCell>
        <mxCell id="qGmY4c33bjeEbuAmrIbD-276" value="" style="endArrow=none;html=1;rounded=0;entryX=1;entryY=0;entryDx=0;entryDy=0;exitX=0.5;exitY=1;exitDx=0;exitDy=0;" parent="1" source="qGmY4c33bjeEbuAmrIbD-235" target="qGmY4c33bjeEbuAmrIbD-232" edge="1">
          <mxGeometry width="50" height="50" relative="1" as="geometry">
            <mxPoint x="1470" y="280" as="sourcePoint" />
            <mxPoint x="1520" y="230" as="targetPoint" />
          </mxGeometry>
        </mxCell>
        <mxCell id="qGmY4c33bjeEbuAmrIbD-277" value="" style="endArrow=none;html=1;rounded=0;entryX=0.5;entryY=1;entryDx=0;entryDy=0;exitX=0.5;exitY=0;exitDx=0;exitDy=0;" parent="1" edge="1">
          <mxGeometry width="50" height="50" relative="1" as="geometry">
            <mxPoint x="1620" y="560" as="sourcePoint" />
            <mxPoint x="1619.5" y="500" as="targetPoint" />
          </mxGeometry>
        </mxCell>
        <mxCell id="qGmY4c33bjeEbuAmrIbD-278" value="" style="endArrow=none;html=1;rounded=0;entryX=1;entryY=0.5;entryDx=0;entryDy=0;exitX=0;exitY=0.5;exitDx=0;exitDy=0;" parent="1" source="qGmY4c33bjeEbuAmrIbD-252" target="qGmY4c33bjeEbuAmrIbD-257" edge="1">
          <mxGeometry width="50" height="50" relative="1" as="geometry">
            <mxPoint x="1670" y="820" as="sourcePoint" />
            <mxPoint x="1720" y="770" as="targetPoint" />
          </mxGeometry>
        </mxCell>
        <mxCell id="qGmY4c33bjeEbuAmrIbD-279" value="" style="endArrow=none;html=1;rounded=0;exitX=0;exitY=0;exitDx=0;exitDy=0;" parent="1" source="qGmY4c33bjeEbuAmrIbD-257" target="qGmY4c33bjeEbuAmrIbD-258" edge="1">
          <mxGeometry width="50" height="50" relative="1" as="geometry">
            <mxPoint x="1420" y="790" as="sourcePoint" />
            <mxPoint x="1690" y="770" as="targetPoint" />
          </mxGeometry>
        </mxCell>
        <mxCell id="qGmY4c33bjeEbuAmrIbD-280" value="" style="endArrow=none;html=1;rounded=0;entryX=1;entryY=0.5;entryDx=0;entryDy=0;exitX=0;exitY=1;exitDx=0;exitDy=0;" parent="1" source="qGmY4c33bjeEbuAmrIbD-257" target="qGmY4c33bjeEbuAmrIbD-259" edge="1">
          <mxGeometry width="50" height="50" relative="1" as="geometry">
            <mxPoint x="1670" y="820" as="sourcePoint" />
            <mxPoint x="1720" y="770" as="targetPoint" />
          </mxGeometry>
        </mxCell>
        <mxCell id="qGmY4c33bjeEbuAmrIbD-281" value="" style="endArrow=none;html=1;rounded=0;entryX=0;entryY=1;entryDx=0;entryDy=0;exitX=1;exitY=0;exitDx=0;exitDy=0;" parent="1" source="qGmY4c33bjeEbuAmrIbD-252" target="qGmY4c33bjeEbuAmrIbD-256" edge="1">
          <mxGeometry width="50" height="50" relative="1" as="geometry">
            <mxPoint x="1670" y="820" as="sourcePoint" />
            <mxPoint x="1720" y="770" as="targetPoint" />
          </mxGeometry>
        </mxCell>
        <mxCell id="qGmY4c33bjeEbuAmrIbD-282" value="" style="endArrow=none;html=1;rounded=0;exitX=0;exitY=0;exitDx=0;exitDy=0;entryX=1;entryY=1;entryDx=0;entryDy=0;" parent="1" source="qGmY4c33bjeEbuAmrIbD-254" target="qGmY4c33bjeEbuAmrIbD-252" edge="1">
          <mxGeometry width="50" height="50" relative="1" as="geometry">
            <mxPoint x="1670" y="820" as="sourcePoint" />
            <mxPoint x="1670" y="810" as="targetPoint" />
          </mxGeometry>
        </mxCell>
        <mxCell id="qGmY4c33bjeEbuAmrIbD-283" value="" style="endArrow=none;html=1;rounded=0;exitX=1;exitY=0;exitDx=0;exitDy=0;" parent="1" source="qGmY4c33bjeEbuAmrIbD-255" edge="1">
          <mxGeometry width="50" height="50" relative="1" as="geometry">
            <mxPoint x="1670" y="820" as="sourcePoint" />
            <mxPoint x="1570" y="820" as="targetPoint" />
          </mxGeometry>
        </mxCell>
        <mxCell id="qGmY4c33bjeEbuAmrIbD-284" value="" style="endArrow=none;html=1;rounded=0;entryX=0.5;entryY=1;entryDx=0;entryDy=0;exitX=0.5;exitY=0;exitDx=0;exitDy=0;" parent="1" source="qGmY4c33bjeEbuAmrIbD-267" target="qGmY4c33bjeEbuAmrIbD-260" edge="1">
          <mxGeometry width="50" height="50" relative="1" as="geometry">
            <mxPoint x="1610" y="920" as="sourcePoint" />
            <mxPoint x="1660" y="870" as="targetPoint" />
          </mxGeometry>
        </mxCell>
        <mxCell id="qGmY4c33bjeEbuAmrIbD-285" value="" style="endArrow=none;html=1;rounded=0;entryX=0.25;entryY=1;entryDx=0;entryDy=0;exitX=0.5;exitY=0;exitDx=0;exitDy=0;" parent="1" source="qGmY4c33bjeEbuAmrIbD-272" target="qGmY4c33bjeEbuAmrIbD-269" edge="1">
          <mxGeometry width="50" height="50" relative="1" as="geometry">
            <mxPoint x="2222.5" y="1247.4999999999995" as="sourcePoint" />
            <mxPoint x="2122.5" y="1037.5" as="targetPoint" />
          </mxGeometry>
        </mxCell>
        <mxCell id="qGmY4c33bjeEbuAmrIbD-286" value="" style="endArrow=none;html=1;rounded=0;entryX=0.75;entryY=1;entryDx=0;entryDy=0;exitX=0.5;exitY=0;exitDx=0;exitDy=0;" parent="1" source="qGmY4c33bjeEbuAmrIbD-273" target="qGmY4c33bjeEbuAmrIbD-269" edge="1">
          <mxGeometry width="50" height="50" relative="1" as="geometry">
            <mxPoint x="2072.5" y="1087.5" as="sourcePoint" />
            <mxPoint x="2122.5" y="1037.5" as="targetPoint" />
          </mxGeometry>
        </mxCell>
        <mxCell id="qGmY4c33bjeEbuAmrIbD-287" value="Compone" style="shape=rhombus;perimeter=rhombusPerimeter;whiteSpace=wrap;html=1;align=center;fillColor=#EA6B66;" parent="1" vertex="1">
          <mxGeometry x="1810" y="10" width="120" height="60" as="geometry" />
        </mxCell>
        <mxCell id="qGmY4c33bjeEbuAmrIbD-288" value="" style="endArrow=none;html=1;rounded=0;entryX=1;entryY=0.5;entryDx=0;entryDy=0;exitX=0;exitY=0.5;exitDx=0;exitDy=0;" parent="1" edge="1">
          <mxGeometry width="50" height="50" relative="1" as="geometry">
            <mxPoint x="1810" y="39.91" as="sourcePoint" />
            <mxPoint x="1650" y="39.41" as="targetPoint" />
          </mxGeometry>
        </mxCell>
        <mxCell id="qGmY4c33bjeEbuAmrIbD-289" value="" style="endArrow=none;html=1;rounded=0;entryX=1;entryY=0.5;entryDx=0;entryDy=0;exitX=0;exitY=0.5;exitDx=0;exitDy=0;" parent="1" edge="1">
          <mxGeometry width="50" height="50" relative="1" as="geometry">
            <mxPoint x="2090" y="39.91" as="sourcePoint" />
            <mxPoint x="1930" y="39.41" as="targetPoint" />
          </mxGeometry>
        </mxCell>
        <mxCell id="qGmY4c33bjeEbuAmrIbD-290" value="Reside" style="shape=rhombus;perimeter=rhombusPerimeter;whiteSpace=wrap;html=1;align=center;fillColor=#EA6B66;" parent="1" vertex="1">
          <mxGeometry x="2350" y="10" width="120" height="60" as="geometry" />
        </mxCell>
        <mxCell id="qGmY4c33bjeEbuAmrIbD-291" value="" style="endArrow=none;html=1;rounded=0;entryX=1;entryY=0.5;entryDx=0;entryDy=0;exitX=0;exitY=0.5;exitDx=0;exitDy=0;" parent="1" edge="1">
          <mxGeometry width="50" height="50" relative="1" as="geometry">
            <mxPoint x="2350" y="39.91" as="sourcePoint" />
            <mxPoint x="2190" y="39.41" as="targetPoint" />
          </mxGeometry>
        </mxCell>
        <mxCell id="qGmY4c33bjeEbuAmrIbD-292" value="Especie" style="whiteSpace=wrap;html=1;align=center;fillColor=#97D077;" parent="1" vertex="1">
          <mxGeometry x="2630" y="20" width="100" height="40" as="geometry" />
        </mxCell>
        <mxCell id="qGmY4c33bjeEbuAmrIbD-293" value="&lt;u&gt;DenCientífica&lt;/u&gt;" style="ellipse;whiteSpace=wrap;html=1;align=center;fillColor=#FFD966;" parent="1" vertex="1">
          <mxGeometry x="2540" y="-50" width="100" height="40" as="geometry" />
        </mxCell>
        <mxCell id="qGmY4c33bjeEbuAmrIbD-294" value="DenVulgar" style="ellipse;whiteSpace=wrap;html=1;align=center;fillColor=#FFD966;" parent="1" vertex="1">
          <mxGeometry x="2710" y="-50" width="100" height="40" as="geometry" />
        </mxCell>
        <mxCell id="qGmY4c33bjeEbuAmrIbD-295" value="" style="endArrow=none;html=1;rounded=0;entryX=0;entryY=0;entryDx=0;entryDy=0;exitX=0.57;exitY=1;exitDx=0;exitDy=0;exitPerimeter=0;" parent="1" source="qGmY4c33bjeEbuAmrIbD-293" target="qGmY4c33bjeEbuAmrIbD-292" edge="1">
          <mxGeometry width="50" height="50" relative="1" as="geometry">
            <mxPoint x="2800" y="190" as="sourcePoint" />
            <mxPoint x="2850" y="140" as="targetPoint" />
          </mxGeometry>
        </mxCell>
        <mxCell id="qGmY4c33bjeEbuAmrIbD-296" value="" style="endArrow=none;html=1;rounded=0;entryX=1;entryY=0;entryDx=0;entryDy=0;exitX=0.5;exitY=1;exitDx=0;exitDy=0;" parent="1" source="qGmY4c33bjeEbuAmrIbD-294" target="qGmY4c33bjeEbuAmrIbD-292" edge="1">
          <mxGeometry width="50" height="50" relative="1" as="geometry">
            <mxPoint x="2800" y="190" as="sourcePoint" />
            <mxPoint x="2850" y="140" as="targetPoint" />
          </mxGeometry>
        </mxCell>
        <mxCell id="qGmY4c33bjeEbuAmrIbD-297" value="" style="endArrow=none;html=1;rounded=0;entryX=1;entryY=0.5;entryDx=0;entryDy=0;exitX=0;exitY=0.5;exitDx=0;exitDy=0;" parent="1" edge="1">
          <mxGeometry width="50" height="50" relative="1" as="geometry">
            <mxPoint x="2630" y="39.91" as="sourcePoint" />
            <mxPoint x="2470" y="39.41" as="targetPoint" />
          </mxGeometry>
        </mxCell>
        <mxCell id="qGmY4c33bjeEbuAmrIbD-298" value="" style="endArrow=none;html=1;rounded=0;entryX=0;entryY=0;entryDx=0;entryDy=0;exitX=1;exitY=1;exitDx=0;exitDy=0;" parent="1" source="qGmY4c33bjeEbuAmrIbD-253" target="qGmY4c33bjeEbuAmrIbD-252" edge="1">
          <mxGeometry width="50" height="50" relative="1" as="geometry">
            <mxPoint x="1525.1455206038277" y="744.2255678634538" as="sourcePoint" />
            <mxPoint x="1620" y="810" as="targetPoint" />
          </mxGeometry>
        </mxCell>
        <mxCell id="qGmY4c33bjeEbuAmrIbD-299" value="" style="endArrow=none;html=1;rounded=0;entryX=0.5;entryY=1;entryDx=0;entryDy=0;exitX=0.5;exitY=0;exitDx=0;exitDy=0;" parent="1" edge="1">
          <mxGeometry width="50" height="50" relative="1" as="geometry">
            <mxPoint x="1619.9099999999999" y="780" as="sourcePoint" />
            <mxPoint x="1619.4099999999999" y="720" as="targetPoint" />
          </mxGeometry>
        </mxCell>
        <mxCell id="qGmY4c33bjeEbuAmrIbD-300" value="" style="endArrow=none;html=1;rounded=0;exitX=0.5;exitY=0;exitDx=0;exitDy=0;entryX=0.5;entryY=1;entryDx=0;entryDy=0;" parent="1" source="qGmY4c33bjeEbuAmrIbD-242" edge="1">
          <mxGeometry width="50" height="50" relative="1" as="geometry">
            <mxPoint x="2810" y="240" as="sourcePoint" />
            <mxPoint x="2895" y="150" as="targetPoint" />
          </mxGeometry>
        </mxCell>
        <mxCell id="qGmY4c33bjeEbuAmrIbD-301" value="" style="endArrow=none;html=1;rounded=0;exitX=0.5;exitY=0;exitDx=0;exitDy=0;entryX=0.5;entryY=0;entryDx=0;entryDy=0;" parent="1" source="qGmY4c33bjeEbuAmrIbD-241" target="qGmY4c33bjeEbuAmrIbD-239" edge="1">
          <mxGeometry width="50" height="50" relative="1" as="geometry">
            <mxPoint x="2830" y="240" as="sourcePoint" />
            <mxPoint x="2905" y="160" as="targetPoint" />
          </mxGeometry>
        </mxCell>
        <mxCell id="qGmY4c33bjeEbuAmrIbD-302" value="" style="endArrow=none;html=1;rounded=0;entryX=0.008;entryY=0.044;entryDx=0;entryDy=0;entryPerimeter=0;exitX=0;exitY=0.5;exitDx=0;exitDy=0;" parent="1" source="qGmY4c33bjeEbuAmrIbD-240" target="qGmY4c33bjeEbuAmrIbD-239" edge="1">
          <mxGeometry width="50" height="50" relative="1" as="geometry">
            <mxPoint x="2870" y="270" as="sourcePoint" />
            <mxPoint x="2920" y="220" as="targetPoint" />
          </mxGeometry>
        </mxCell>
        <mxCell id="qGmY4c33bjeEbuAmrIbD-303" value="" style="endArrow=none;html=1;rounded=0;entryX=0.25;entryY=1;entryDx=0;entryDy=0;exitX=0.5;exitY=0;exitDx=0;exitDy=0;" parent="1" target="qGmY4c33bjeEbuAmrIbD-242" edge="1">
          <mxGeometry width="50" height="50" relative="1" as="geometry">
            <mxPoint x="2740" y="320" as="sourcePoint" />
            <mxPoint x="2920" y="220" as="targetPoint" />
          </mxGeometry>
        </mxCell>
        <mxCell id="qGmY4c33bjeEbuAmrIbD-304" value="" style="endArrow=none;html=1;rounded=0;entryX=0.75;entryY=1;entryDx=0;entryDy=0;exitX=0.5;exitY=0;exitDx=0;exitDy=0;" parent="1" source="qGmY4c33bjeEbuAmrIbD-244" target="qGmY4c33bjeEbuAmrIbD-242" edge="1">
          <mxGeometry width="50" height="50" relative="1" as="geometry">
            <mxPoint x="2870" y="270" as="sourcePoint" />
            <mxPoint x="2920" y="220" as="targetPoint" />
          </mxGeometry>
        </mxCell>
        <mxCell id="qGmY4c33bjeEbuAmrIbD-305" value="" style="endArrow=none;html=1;rounded=0;entryX=0.25;entryY=1;entryDx=0;entryDy=0;" parent="1" target="qGmY4c33bjeEbuAmrIbD-241" edge="1">
          <mxGeometry width="50" height="50" relative="1" as="geometry">
            <mxPoint x="3000" y="320" as="sourcePoint" />
            <mxPoint x="3035" y="270" as="targetPoint" />
          </mxGeometry>
        </mxCell>
        <mxCell id="qGmY4c33bjeEbuAmrIbD-306" value="" style="endArrow=none;html=1;rounded=0;entryX=0.75;entryY=1;entryDx=0;entryDy=0;exitX=0.5;exitY=0;exitDx=0;exitDy=0;" parent="1" edge="1">
          <mxGeometry width="50" height="50" relative="1" as="geometry">
            <mxPoint x="3115" y="320" as="sourcePoint" />
            <mxPoint x="3080" y="270" as="targetPoint" />
          </mxGeometry>
        </mxCell>
        <mxCell id="qGmY4c33bjeEbuAmrIbD-307" value="" style="endArrow=none;html=1;rounded=0;entryX=0;entryY=1;entryDx=0;entryDy=0;exitX=0.5;exitY=0;exitDx=0;exitDy=0;" parent="1" source="qGmY4c33bjeEbuAmrIbD-246" target="qGmY4c33bjeEbuAmrIbD-245" edge="1">
          <mxGeometry width="50" height="50" relative="1" as="geometry">
            <mxPoint x="3060" y="410" as="sourcePoint" />
            <mxPoint x="3085" y="360" as="targetPoint" />
          </mxGeometry>
        </mxCell>
        <mxCell id="qGmY4c33bjeEbuAmrIbD-308" value="" style="endArrow=none;html=1;rounded=0;entryX=0.5;entryY=1;entryDx=0;entryDy=0;exitX=0.5;exitY=0;exitDx=0;exitDy=0;" parent="1" source="qGmY4c33bjeEbuAmrIbD-248" target="qGmY4c33bjeEbuAmrIbD-245" edge="1">
          <mxGeometry width="50" height="50" relative="1" as="geometry">
            <mxPoint x="2870" y="270" as="sourcePoint" />
            <mxPoint x="2920" y="220" as="targetPoint" />
          </mxGeometry>
        </mxCell>
        <mxCell id="qGmY4c33bjeEbuAmrIbD-309" value="" style="endArrow=none;html=1;rounded=0;entryX=1;entryY=1;entryDx=0;entryDy=0;exitX=0.5;exitY=0;exitDx=0;exitDy=0;" parent="1" source="qGmY4c33bjeEbuAmrIbD-247" target="qGmY4c33bjeEbuAmrIbD-245" edge="1">
          <mxGeometry width="50" height="50" relative="1" as="geometry">
            <mxPoint x="2870" y="270" as="sourcePoint" />
            <mxPoint x="2920" y="220" as="targetPoint" />
          </mxGeometry>
        </mxCell>
        <mxCell id="qGmY4c33bjeEbuAmrIbD-310" value="" style="endArrow=none;html=1;rounded=0;entryX=1;entryY=0.5;entryDx=0;entryDy=0;exitX=0;exitY=0.5;exitDx=0;exitDy=0;" parent="1" edge="1">
          <mxGeometry width="50" height="50" relative="1" as="geometry">
            <mxPoint x="3260" y="250.01999999999998" as="sourcePoint" />
            <mxPoint x="3100" y="249.51999999999998" as="targetPoint" />
          </mxGeometry>
        </mxCell>
        <mxCell id="qGmY4c33bjeEbuAmrIbD-311" value="" style="endArrow=none;html=1;rounded=0;entryX=0.5;entryY=0;entryDx=0;entryDy=0;exitX=1;exitY=0.5;exitDx=0;exitDy=0;" parent="1" source="qGmY4c33bjeEbuAmrIbD-292" target="qGmY4c33bjeEbuAmrIbD-250" edge="1">
          <mxGeometry width="50" height="50" relative="1" as="geometry">
            <mxPoint x="2640" y="260" as="sourcePoint" />
            <mxPoint x="2690" y="210" as="targetPoint" />
            <Array as="points">
              <mxPoint x="3320" y="40" />
            </Array>
          </mxGeometry>
        </mxCell>
        <mxCell id="qGmY4c33bjeEbuAmrIbD-312" value="" style="endArrow=none;html=1;rounded=0;entryX=0;entryY=0.5;entryDx=0;entryDy=0;exitX=0.75;exitY=1;exitDx=0;exitDy=0;" parent="1" source="qGmY4c33bjeEbuAmrIbD-292" target="qGmY4c33bjeEbuAmrIbD-239" edge="1">
          <mxGeometry width="50" height="50" relative="1" as="geometry">
            <mxPoint x="2680" y="100" as="sourcePoint" />
            <mxPoint x="2740" y="280" as="targetPoint" />
            <Array as="points">
              <mxPoint x="2705" y="100" />
              <mxPoint x="2910" y="100" />
            </Array>
          </mxGeometry>
        </mxCell>
        <mxCell id="qGmY4c33bjeEbuAmrIbD-313" value="" style="endArrow=none;html=1;rounded=0;entryX=0.25;entryY=0;entryDx=0;entryDy=0;exitX=0.5;exitY=1;exitDx=0;exitDy=0;" parent="1" source="qGmY4c33bjeEbuAmrIbD-237" target="qGmY4c33bjeEbuAmrIbD-230" edge="1">
          <mxGeometry width="50" height="50" relative="1" as="geometry">
            <mxPoint x="2500" y="400" as="sourcePoint" />
            <mxPoint x="2550" y="350" as="targetPoint" />
          </mxGeometry>
        </mxCell>
        <mxCell id="qGmY4c33bjeEbuAmrIbD-314" value="" style="endArrow=none;html=1;rounded=0;entryX=0.75;entryY=0;entryDx=0;entryDy=0;exitX=0.5;exitY=1;exitDx=0;exitDy=0;" parent="1" source="qGmY4c33bjeEbuAmrIbD-238" target="qGmY4c33bjeEbuAmrIbD-230" edge="1">
          <mxGeometry width="50" height="50" relative="1" as="geometry">
            <mxPoint x="2500" y="400" as="sourcePoint" />
            <mxPoint x="2550" y="350" as="targetPoint" />
          </mxGeometry>
        </mxCell>
        <mxCell id="qGmY4c33bjeEbuAmrIbD-315" value="Investiga" style="shape=rhombus;perimeter=rhombusPerimeter;whiteSpace=wrap;html=1;align=center;fillColor=#EA6B66;" parent="1" vertex="1">
          <mxGeometry x="2350" y="220" width="120" height="60" as="geometry" />
        </mxCell>
        <mxCell id="qGmY4c33bjeEbuAmrIbD-316" value="Especialidad" style="ellipse;whiteSpace=wrap;html=1;align=center;fillColor=#FFD966;" parent="1" vertex="1">
          <mxGeometry x="1600" y="1070" width="100" height="40" as="geometry" />
        </mxCell>
        <mxCell id="qGmY4c33bjeEbuAmrIbD-317" value="" style="endArrow=none;html=1;rounded=0;entryX=0;entryY=1;entryDx=0;entryDy=0;exitX=0.5;exitY=0;exitDx=0;exitDy=0;" parent="1" source="qGmY4c33bjeEbuAmrIbD-316" target="qGmY4c33bjeEbuAmrIbD-262" edge="1">
          <mxGeometry width="50" height="50" relative="1" as="geometry">
            <mxPoint x="1700" y="1070" as="sourcePoint" />
            <mxPoint x="1699.58" y="1030" as="targetPoint" />
          </mxGeometry>
        </mxCell>
        <mxCell id="qGmY4c33bjeEbuAmrIbD-318" value="tipoVehículo" style="ellipse;whiteSpace=wrap;html=1;align=center;fillColor=#FFD966;" parent="1" vertex="1">
          <mxGeometry x="2190" y="1060" width="100" height="40" as="geometry" />
        </mxCell>
        <mxCell id="qGmY4c33bjeEbuAmrIbD-319" value="&lt;u&gt;Matrícula&lt;/u&gt;" style="ellipse;whiteSpace=wrap;html=1;align=center;fillColor=#FFD966;" parent="1" vertex="1">
          <mxGeometry x="2337.5" y="1060" width="100" height="40" as="geometry" />
        </mxCell>
        <mxCell id="qGmY4c33bjeEbuAmrIbD-320" value="" style="endArrow=none;html=1;rounded=0;entryX=0;entryY=1;entryDx=0;entryDy=0;exitX=0.5;exitY=0;exitDx=0;exitDy=0;" parent="1" source="qGmY4c33bjeEbuAmrIbD-339" target="qGmY4c33bjeEbuAmrIbD-261" edge="1">
          <mxGeometry width="50" height="50" relative="1" as="geometry">
            <mxPoint x="1420" y="1070" as="sourcePoint" />
            <mxPoint x="1499.71" y="1030" as="targetPoint" />
          </mxGeometry>
        </mxCell>
        <mxCell id="qGmY4c33bjeEbuAmrIbD-321" value="Utiliza" style="shape=rhombus;perimeter=rhombusPerimeter;whiteSpace=wrap;html=1;align=center;fillColor=#EA6B66;" parent="1" vertex="1">
          <mxGeometry x="2040" y="980" width="120" height="60" as="geometry" />
        </mxCell>
        <mxCell id="qGmY4c33bjeEbuAmrIbD-322" value="Vehículo" style="whiteSpace=wrap;html=1;align=center;fillColor=#97D077;" parent="1" vertex="1">
          <mxGeometry x="2260" y="990" width="100" height="40" as="geometry" />
        </mxCell>
        <mxCell id="qGmY4c33bjeEbuAmrIbD-324" value="" style="endArrow=none;html=1;rounded=0;entryX=1;entryY=0.5;entryDx=0;entryDy=0;exitX=0;exitY=0.5;exitDx=0;exitDy=0;" parent="1" edge="1">
          <mxGeometry width="50" height="50" relative="1" as="geometry">
            <mxPoint x="2040" y="1010" as="sourcePoint" />
            <mxPoint x="1940" y="1010" as="targetPoint" />
          </mxGeometry>
        </mxCell>
        <mxCell id="qGmY4c33bjeEbuAmrIbD-325" value="" style="endArrow=none;html=1;rounded=0;entryX=0.25;entryY=1;entryDx=0;entryDy=0;exitX=0.5;exitY=0;exitDx=0;exitDy=0;" parent="1" source="qGmY4c33bjeEbuAmrIbD-318" target="qGmY4c33bjeEbuAmrIbD-322" edge="1">
          <mxGeometry width="50" height="50" relative="1" as="geometry">
            <mxPoint x="2140" y="1170" as="sourcePoint" />
            <mxPoint x="2190" y="1120" as="targetPoint" />
          </mxGeometry>
        </mxCell>
        <mxCell id="qGmY4c33bjeEbuAmrIbD-326" value="" style="endArrow=none;html=1;rounded=0;entryX=0.75;entryY=1;entryDx=0;entryDy=0;exitX=0.5;exitY=0;exitDx=0;exitDy=0;" parent="1" source="qGmY4c33bjeEbuAmrIbD-319" target="qGmY4c33bjeEbuAmrIbD-322" edge="1">
          <mxGeometry width="50" height="50" relative="1" as="geometry">
            <mxPoint x="2140" y="1170" as="sourcePoint" />
            <mxPoint x="2190" y="1120" as="targetPoint" />
          </mxGeometry>
        </mxCell>
        <mxCell id="qGmY4c33bjeEbuAmrIbD-327" value="" style="endArrow=none;html=1;rounded=0;entryX=1;entryY=0.5;entryDx=0;entryDy=0;exitX=0;exitY=0.5;exitDx=0;exitDy=0;" parent="1" source="qGmY4c33bjeEbuAmrIbD-269" target="qGmY4c33bjeEbuAmrIbD-270" edge="1">
          <mxGeometry width="50" height="50" relative="1" as="geometry">
            <mxPoint x="2262.5" y="1186.91" as="sourcePoint" />
            <mxPoint x="2182.5" y="1197.5" as="targetPoint" />
          </mxGeometry>
        </mxCell>
        <mxCell id="qGmY4c33bjeEbuAmrIbD-328" value="" style="endArrow=none;html=1;rounded=0;entryX=0.5;entryY=1;entryDx=0;entryDy=0;exitX=0.5;exitY=0;exitDx=0;exitDy=0;" parent="1" source="qGmY4c33bjeEbuAmrIbD-271" target="qGmY4c33bjeEbuAmrIbD-269" edge="1">
          <mxGeometry width="50" height="50" relative="1" as="geometry">
            <mxPoint x="2302.5" y="1057.5" as="sourcePoint" />
            <mxPoint x="2352.5" y="1007.5" as="targetPoint" />
          </mxGeometry>
        </mxCell>
        <mxCell id="qGmY4c33bjeEbuAmrIbD-329" value="" style="endArrow=none;html=1;rounded=0;entryX=0.5;entryY=1;entryDx=0;entryDy=0;exitX=0;exitY=0.5;exitDx=0;exitDy=0;" parent="1" source="qGmY4c33bjeEbuAmrIbD-270" target="qGmY4c33bjeEbuAmrIbD-261" edge="1">
          <mxGeometry width="50" height="50" relative="1" as="geometry">
            <mxPoint x="1760" y="1060" as="sourcePoint" />
            <mxPoint x="1810" y="1010" as="targetPoint" />
            <Array as="points">
              <mxPoint x="1500" y="1200" />
            </Array>
          </mxGeometry>
        </mxCell>
        <mxCell id="qGmY4c33bjeEbuAmrIbD-330" value="Vigila" style="shape=rhombus;perimeter=rhombusPerimeter;whiteSpace=wrap;html=1;align=center;fillColor=#EA6B66;" parent="1" vertex="1">
          <mxGeometry x="1810" y="220" width="120" height="60" as="geometry" />
        </mxCell>
        <mxCell id="qGmY4c33bjeEbuAmrIbD-331" value="Conserva" style="shape=rhombus;perimeter=rhombusPerimeter;whiteSpace=wrap;html=1;align=center;fillColor=#EA6B66;" parent="1" vertex="1">
          <mxGeometry x="2080" y="220" width="120" height="60" as="geometry" />
        </mxCell>
        <mxCell id="qGmY4c33bjeEbuAmrIbD-332" value="" style="endArrow=none;html=1;rounded=0;exitX=0.5;exitY=1;exitDx=0;exitDy=0;entryX=0.5;entryY=1;entryDx=0;entryDy=0;" parent="1" source="qGmY4c33bjeEbuAmrIbD-263" target="qGmY4c33bjeEbuAmrIbD-330" edge="1">
          <mxGeometry width="50" height="50" relative="1" as="geometry">
            <mxPoint x="2000" y="910" as="sourcePoint" />
            <mxPoint x="2450" y="1080" as="targetPoint" />
            <Array as="points">
              <mxPoint x="1890" y="1130" />
              <mxPoint x="2470" y="1130" />
              <mxPoint x="2470" y="600" />
              <mxPoint x="1870" y="600" />
            </Array>
          </mxGeometry>
        </mxCell>
        <mxCell id="qGmY4c33bjeEbuAmrIbD-333" value="" style="endArrow=none;html=1;rounded=0;entryX=0.5;entryY=1;entryDx=0;entryDy=0;exitX=0.5;exitY=1;exitDx=0;exitDy=0;" parent="1" source="qGmY4c33bjeEbuAmrIbD-331" target="qGmY4c33bjeEbuAmrIbD-262" edge="1">
          <mxGeometry width="50" height="50" relative="1" as="geometry">
            <mxPoint x="2000" y="1100" as="sourcePoint" />
            <mxPoint x="2050" y="1050" as="targetPoint" />
            <Array as="points">
              <mxPoint x="2140" y="530" />
              <mxPoint x="2530" y="530" />
              <mxPoint x="2530" y="1160" />
              <mxPoint x="1740" y="1160" />
            </Array>
          </mxGeometry>
        </mxCell>
        <mxCell id="qGmY4c33bjeEbuAmrIbD-334" value="" style="endArrow=none;html=1;rounded=0;exitX=1;exitY=0.5;exitDx=0;exitDy=0;entryX=0.5;entryY=1;entryDx=0;entryDy=0;" parent="1" source="qGmY4c33bjeEbuAmrIbD-269" target="qGmY4c33bjeEbuAmrIbD-315" edge="1">
          <mxGeometry width="50" height="50" relative="1" as="geometry">
            <mxPoint x="2000" y="1110" as="sourcePoint" />
            <mxPoint x="2050" y="1060" as="targetPoint" />
            <Array as="points">
              <mxPoint x="2620" y="1198" />
              <mxPoint x="2620" y="470" />
              <mxPoint x="2410" y="470" />
            </Array>
          </mxGeometry>
        </mxCell>
        <mxCell id="qGmY4c33bjeEbuAmrIbD-335" value="" style="endArrow=none;html=1;rounded=0;entryX=0.25;entryY=1;entryDx=0;entryDy=0;exitX=0.5;exitY=0;exitDx=0;exitDy=0;" parent="1" source="qGmY4c33bjeEbuAmrIbD-330" target="qGmY4c33bjeEbuAmrIbD-230" edge="1">
          <mxGeometry width="50" height="50" relative="1" as="geometry">
            <mxPoint x="2190" y="310" as="sourcePoint" />
            <mxPoint x="2240" y="260" as="targetPoint" />
            <Array as="points">
              <mxPoint x="1870" y="150" />
              <mxPoint x="2115" y="150" />
            </Array>
          </mxGeometry>
        </mxCell>
        <mxCell id="qGmY4c33bjeEbuAmrIbD-336" value="" style="endArrow=none;html=1;rounded=0;entryX=0.5;entryY=1;entryDx=0;entryDy=0;exitX=0.5;exitY=0;exitDx=0;exitDy=0;" parent="1" source="qGmY4c33bjeEbuAmrIbD-331" target="qGmY4c33bjeEbuAmrIbD-230" edge="1">
          <mxGeometry width="50" height="50" relative="1" as="geometry">
            <mxPoint x="2190" y="310" as="sourcePoint" />
            <mxPoint x="2240" y="260" as="targetPoint" />
          </mxGeometry>
        </mxCell>
        <mxCell id="qGmY4c33bjeEbuAmrIbD-337" value="" style="endArrow=none;html=1;rounded=0;entryX=0.5;entryY=1;entryDx=0;entryDy=0;exitX=0.5;exitY=0;exitDx=0;exitDy=0;" parent="1" source="qGmY4c33bjeEbuAmrIbD-315" target="qGmY4c33bjeEbuAmrIbD-292" edge="1">
          <mxGeometry width="50" height="50" relative="1" as="geometry">
            <mxPoint x="2190" y="310" as="sourcePoint" />
            <mxPoint x="2240" y="260" as="targetPoint" />
            <Array as="points">
              <mxPoint x="2410" y="150" />
              <mxPoint x="2680" y="150" />
            </Array>
          </mxGeometry>
        </mxCell>
        <mxCell id="qGmY4c33bjeEbuAmrIbD-338" value="" style="rounded=0;whiteSpace=wrap;html=1;fillColor=none;" parent="1" vertex="1">
          <mxGeometry x="2267.5" y="1183.75" width="90" height="27.5" as="geometry" />
        </mxCell>
        <mxCell id="qGmY4c33bjeEbuAmrIbD-339" value="Titulación" style="ellipse;shape=doubleEllipse;margin=3;whiteSpace=wrap;html=1;align=center;fillColor=#FFD966;strokeColor=#d6b656;" parent="1" vertex="1">
          <mxGeometry x="1370" y="1070" width="100" height="40" as="geometry" />
        </mxCell>
        <mxCell id="qGmY4c33bjeEbuAmrIbD-340" value="Visitante" style="whiteSpace=wrap;html=1;align=center;fillColor=#97D077;" parent="1" vertex="1">
          <mxGeometry x="1060" y="340" width="100" height="40" as="geometry" />
        </mxCell>
        <mxCell id="qGmY4c33bjeEbuAmrIbD-341" value="" style="endArrow=none;html=1;rounded=0;exitX=0.5;exitY=0;exitDx=0;exitDy=0;" parent="1" source="qGmY4c33bjeEbuAmrIbD-342" edge="1">
          <mxGeometry width="50" height="50" relative="1" as="geometry">
            <mxPoint x="1625" y="140" as="sourcePoint" />
            <mxPoint x="1620" y="60" as="targetPoint" />
          </mxGeometry>
        </mxCell>
        <mxCell id="qGmY4c33bjeEbuAmrIbD-342" value="Está" style="shape=rhombus;perimeter=rhombusPerimeter;whiteSpace=wrap;html=1;align=center;fillColor=#EA6B66;" parent="1" vertex="1">
          <mxGeometry x="1560" y="220" width="120" height="60" as="geometry" />
        </mxCell>
        <mxCell id="qGmY4c33bjeEbuAmrIbD-343" value="" style="endArrow=none;html=1;rounded=0;entryX=0.5;entryY=1;entryDx=0;entryDy=0;exitX=0.5;exitY=0;exitDx=0;exitDy=0;" parent="1" edge="1">
          <mxGeometry width="50" height="50" relative="1" as="geometry">
            <mxPoint x="1620.5" y="340" as="sourcePoint" />
            <mxPoint x="1620" y="280" as="targetPoint" />
          </mxGeometry>
        </mxCell>
        <mxCell id="qGmY4c33bjeEbuAmrIbD-344" value="" style="endArrow=none;html=1;rounded=0;entryX=0.5;entryY=1;entryDx=0;entryDy=0;exitX=0.5;exitY=0;exitDx=0;exitDy=0;" parent="1" source="qGmY4c33bjeEbuAmrIbD-266" edge="1">
          <mxGeometry width="50" height="50" relative="1" as="geometry">
            <mxPoint x="1620.5" y="440" as="sourcePoint" />
            <mxPoint x="1620" y="380" as="targetPoint" />
          </mxGeometry>
        </mxCell>
        <mxCell id="qGmY4c33bjeEbuAmrIbD-345" value="" style="endArrow=none;html=1;rounded=0;entryX=0.5;entryY=1;entryDx=0;entryDy=0;exitX=0.5;exitY=0;exitDx=0;exitDy=0;" parent="1" source="qGmY4c33bjeEbuAmrIbD-251" edge="1">
          <mxGeometry width="50" height="50" relative="1" as="geometry">
            <mxPoint x="1620" y="670" as="sourcePoint" />
            <mxPoint x="1620" y="600" as="targetPoint" />
          </mxGeometry>
        </mxCell>
        <mxCell id="qGmY4c33bjeEbuAmrIbD-346" value="" style="endArrow=none;html=1;rounded=0;entryX=0.5;entryY=1;entryDx=0;entryDy=0;exitX=0.5;exitY=0;exitDx=0;exitDy=0;" parent="1" edge="1">
          <mxGeometry width="50" height="50" relative="1" as="geometry">
            <mxPoint x="1620.08" y="880" as="sourcePoint" />
            <mxPoint x="1619.58" y="820" as="targetPoint" />
          </mxGeometry>
        </mxCell>
        <mxCell id="qGmY4c33bjeEbuAmrIbD-347" value="" style="endArrow=none;html=1;rounded=0;entryX=0.5;entryY=0;entryDx=0;entryDy=0;exitX=0.313;exitY=0.847;exitDx=0;exitDy=0;exitPerimeter=0;" parent="1" source="qGmY4c33bjeEbuAmrIbD-233" target="qGmY4c33bjeEbuAmrIbD-260" edge="1">
          <mxGeometry width="50" height="50" relative="1" as="geometry">
            <mxPoint x="1630.08" y="890" as="sourcePoint" />
            <mxPoint x="1629.58" y="830" as="targetPoint" />
          </mxGeometry>
        </mxCell>
        <mxCell id="qGmY4c33bjeEbuAmrIbD-348" value="" style="endArrow=none;html=1;rounded=0;entryX=0.5;entryY=0;entryDx=0;entryDy=0;exitX=0.7;exitY=0.66;exitDx=0;exitDy=0;exitPerimeter=0;" parent="1" source="qGmY4c33bjeEbuAmrIbD-233" target="qGmY4c33bjeEbuAmrIbD-261" edge="1">
          <mxGeometry width="50" height="50" relative="1" as="geometry">
            <mxPoint x="1610" y="910" as="sourcePoint" />
            <mxPoint x="1320" y="1000" as="targetPoint" />
          </mxGeometry>
        </mxCell>
        <mxCell id="qGmY4c33bjeEbuAmrIbD-349" value="" style="endArrow=none;html=1;rounded=0;entryX=0.5;entryY=0;entryDx=0;entryDy=0;exitX=0.313;exitY=0.139;exitDx=0;exitDy=0;exitPerimeter=0;" parent="1" source="qGmY4c33bjeEbuAmrIbD-233" target="qGmY4c33bjeEbuAmrIbD-263" edge="1">
          <mxGeometry width="50" height="50" relative="1" as="geometry">
            <mxPoint x="1609" y="903" as="sourcePoint" />
            <mxPoint x="1320" y="1000" as="targetPoint" />
          </mxGeometry>
        </mxCell>
        <mxCell id="qGmY4c33bjeEbuAmrIbD-350" value="" style="endArrow=none;html=1;rounded=0;entryX=0.5;entryY=0;entryDx=0;entryDy=0;exitX=0.654;exitY=0.32;exitDx=0;exitDy=0;exitPerimeter=0;" parent="1" source="qGmY4c33bjeEbuAmrIbD-233" target="qGmY4c33bjeEbuAmrIbD-262" edge="1">
          <mxGeometry width="50" height="50" relative="1" as="geometry">
            <mxPoint x="1620" y="918" as="sourcePoint" />
            <mxPoint x="1510" y="1000" as="targetPoint" />
          </mxGeometry>
        </mxCell>
        <mxCell id="qGmY4c33bjeEbuAmrIbD-351" value="" style="endArrow=none;html=1;rounded=0;entryX=1;entryY=0.5;entryDx=0;entryDy=0;exitX=0;exitY=0.5;exitDx=0;exitDy=0;" parent="1" edge="1">
          <mxGeometry width="50" height="50" relative="1" as="geometry">
            <mxPoint x="2260" y="1009.5" as="sourcePoint" />
            <mxPoint x="2160" y="1009.5" as="targetPoint" />
          </mxGeometry>
        </mxCell>
        <mxCell id="qGmY4c33bjeEbuAmrIbD-352" value="Visita" style="shape=rhombus;perimeter=rhombusPerimeter;whiteSpace=wrap;html=1;align=center;fillColor=#EA6B66;" parent="1" vertex="1">
          <mxGeometry x="1050" y="220" width="120" height="60" as="geometry" />
        </mxCell>
        <mxCell id="qGmY4c33bjeEbuAmrIbD-353" value="" style="endArrow=none;html=1;rounded=0;entryX=0.5;entryY=1;entryDx=0;entryDy=0;exitX=0.5;exitY=0;exitDx=0;exitDy=0;" parent="1" source="qGmY4c33bjeEbuAmrIbD-352" target="qGmY4c33bjeEbuAmrIbD-232" edge="1">
          <mxGeometry width="50" height="50" relative="1" as="geometry">
            <mxPoint x="1090" y="190" as="sourcePoint" />
            <mxPoint x="1140" y="140" as="targetPoint" />
            <Array as="points">
              <mxPoint x="1110" y="180" />
              <mxPoint x="1600" y="180" />
            </Array>
          </mxGeometry>
        </mxCell>
        <mxCell id="qGmY4c33bjeEbuAmrIbD-354" value="" style="endArrow=none;html=1;rounded=0;exitX=0.5;exitY=0;exitDx=0;exitDy=0;entryX=0.1;entryY=1.016;entryDx=0;entryDy=0;entryPerimeter=0;" parent="1" source="qGmY4c33bjeEbuAmrIbD-368" target="qGmY4c33bjeEbuAmrIbD-232" edge="1">
          <mxGeometry width="50" height="50" relative="1" as="geometry">
            <mxPoint x="550" y="220" as="sourcePoint" />
            <mxPoint x="1570" y="60" as="targetPoint" />
            <Array as="points">
              <mxPoint x="580" y="110" />
              <mxPoint x="1560" y="110" />
            </Array>
          </mxGeometry>
        </mxCell>
        <mxCell id="qGmY4c33bjeEbuAmrIbD-355" value="" style="endArrow=none;html=1;rounded=0;entryX=1;entryY=0.5;entryDx=0;entryDy=0;exitX=0;exitY=0.5;exitDx=0;exitDy=0;" parent="1" edge="1">
          <mxGeometry width="50" height="50" relative="1" as="geometry">
            <mxPoint x="1060" y="360.5" as="sourcePoint" />
            <mxPoint x="900" y="360" as="targetPoint" />
          </mxGeometry>
        </mxCell>
        <mxCell id="qGmY4c33bjeEbuAmrIbD-356" value="Se aloja" style="shape=rhombus;perimeter=rhombusPerimeter;whiteSpace=wrap;html=1;align=center;fillColor=#EA6B66;" parent="1" vertex="1">
          <mxGeometry x="790" y="330" width="120" height="60" as="geometry" />
        </mxCell>
        <mxCell id="qGmY4c33bjeEbuAmrIbD-357" value="Alojamiento" style="whiteSpace=wrap;html=1;align=center;fillColor=#97D077;" parent="1" vertex="1">
          <mxGeometry x="530" y="340" width="100" height="40" as="geometry" />
        </mxCell>
        <mxCell id="qGmY4c33bjeEbuAmrIbD-358" value="" style="endArrow=none;html=1;rounded=0;entryX=1;entryY=0.5;entryDx=0;entryDy=0;exitX=0;exitY=0.5;exitDx=0;exitDy=0;" parent="1" edge="1">
          <mxGeometry width="50" height="50" relative="1" as="geometry">
            <mxPoint x="790" y="359.97" as="sourcePoint" />
            <mxPoint x="630" y="359.47" as="targetPoint" />
          </mxGeometry>
        </mxCell>
        <mxCell id="qGmY4c33bjeEbuAmrIbD-359" value="" style="endArrow=none;html=1;rounded=0;entryX=0.5;entryY=1;entryDx=0;entryDy=0;exitX=0.5;exitY=0;exitDx=0;exitDy=0;" parent="1" edge="1">
          <mxGeometry width="50" height="50" relative="1" as="geometry">
            <mxPoint x="1109.97" y="340" as="sourcePoint" />
            <mxPoint x="1109.47" y="280" as="targetPoint" />
          </mxGeometry>
        </mxCell>
        <mxCell id="qGmY4c33bjeEbuAmrIbD-360" value="Nombre" style="ellipse;whiteSpace=wrap;html=1;align=center;fillColor=#FFD966;" parent="1" vertex="1">
          <mxGeometry x="1180" y="420" width="100" height="40" as="geometry" />
        </mxCell>
        <mxCell id="qGmY4c33bjeEbuAmrIbD-361" value="&lt;u&gt;DNI&lt;/u&gt;" style="ellipse;whiteSpace=wrap;html=1;align=center;fillColor=#FFD966;" parent="1" vertex="1">
          <mxGeometry x="930" y="420" width="100" height="40" as="geometry" />
        </mxCell>
        <mxCell id="qGmY4c33bjeEbuAmrIbD-362" value="Domicilio" style="ellipse;whiteSpace=wrap;html=1;align=center;fillColor=#FFD966;" parent="1" vertex="1">
          <mxGeometry x="880" y="380" width="100" height="40" as="geometry" />
        </mxCell>
        <mxCell id="qGmY4c33bjeEbuAmrIbD-363" value="Profesión" style="ellipse;whiteSpace=wrap;html=1;align=center;fillColor=#FFD966;" parent="1" vertex="1">
          <mxGeometry x="1250" y="380" width="100" height="40" as="geometry" />
        </mxCell>
        <mxCell id="qGmY4c33bjeEbuAmrIbD-364" value="" style="endArrow=none;html=1;rounded=0;entryX=0;entryY=0.75;entryDx=0;entryDy=0;exitX=0.5;exitY=0;exitDx=0;exitDy=0;" parent="1" source="qGmY4c33bjeEbuAmrIbD-362" target="qGmY4c33bjeEbuAmrIbD-340" edge="1">
          <mxGeometry width="50" height="50" relative="1" as="geometry">
            <mxPoint x="1410" y="570" as="sourcePoint" />
            <mxPoint x="1460" y="520" as="targetPoint" />
          </mxGeometry>
        </mxCell>
        <mxCell id="qGmY4c33bjeEbuAmrIbD-365" value="" style="endArrow=none;html=1;rounded=0;exitX=0.5;exitY=0;exitDx=0;exitDy=0;" parent="1" source="qGmY4c33bjeEbuAmrIbD-361" edge="1">
          <mxGeometry width="50" height="50" relative="1" as="geometry">
            <mxPoint x="1410" y="570" as="sourcePoint" />
            <mxPoint x="1070" y="380" as="targetPoint" />
          </mxGeometry>
        </mxCell>
        <mxCell id="qGmY4c33bjeEbuAmrIbD-366" value="" style="endArrow=none;html=1;rounded=0;exitX=0.5;exitY=0;exitDx=0;exitDy=0;" parent="1" source="qGmY4c33bjeEbuAmrIbD-360" edge="1">
          <mxGeometry width="50" height="50" relative="1" as="geometry">
            <mxPoint x="1410" y="570" as="sourcePoint" />
            <mxPoint x="1150" y="380" as="targetPoint" />
          </mxGeometry>
        </mxCell>
        <mxCell id="qGmY4c33bjeEbuAmrIbD-367" value="" style="endArrow=none;html=1;rounded=0;entryX=1;entryY=0.75;entryDx=0;entryDy=0;exitX=0.5;exitY=0;exitDx=0;exitDy=0;" parent="1" source="qGmY4c33bjeEbuAmrIbD-363" target="qGmY4c33bjeEbuAmrIbD-340" edge="1">
          <mxGeometry width="50" height="50" relative="1" as="geometry">
            <mxPoint x="1410" y="570" as="sourcePoint" />
            <mxPoint x="1460" y="520" as="targetPoint" />
          </mxGeometry>
        </mxCell>
        <mxCell id="qGmY4c33bjeEbuAmrIbD-368" value="Dispone" style="shape=rhombus;perimeter=rhombusPerimeter;whiteSpace=wrap;html=1;align=center;fillColor=#EA6B66;" parent="1" vertex="1">
          <mxGeometry x="520" y="220" width="120" height="60" as="geometry" />
        </mxCell>
        <mxCell id="qGmY4c33bjeEbuAmrIbD-369" value="" style="endArrow=none;html=1;rounded=0;entryX=0.5;entryY=1;entryDx=0;entryDy=0;exitX=0.5;exitY=0;exitDx=0;exitDy=0;" parent="1" edge="1">
          <mxGeometry width="50" height="50" relative="1" as="geometry">
            <mxPoint x="580" y="340" as="sourcePoint" />
            <mxPoint x="580" y="280" as="targetPoint" />
          </mxGeometry>
        </mxCell>
        <mxCell id="qGmY4c33bjeEbuAmrIbD-370" value="Excursion" style="whiteSpace=wrap;html=1;align=center;fillColor=#97D077;" parent="1" vertex="1">
          <mxGeometry x="800" y="560" width="100" height="40" as="geometry" />
        </mxCell>
        <mxCell id="qGmY4c33bjeEbuAmrIbD-371" value="Asiste" style="shape=rhombus;perimeter=rhombusPerimeter;whiteSpace=wrap;html=1;align=center;fillColor=#EA6B66;" parent="1" vertex="1">
          <mxGeometry x="1050" y="440" width="120" height="60" as="geometry" />
        </mxCell>
        <mxCell id="qGmY4c33bjeEbuAmrIbD-372" value="Realiza" style="shape=rhombus;perimeter=rhombusPerimeter;whiteSpace=wrap;html=1;align=center;fillColor=#EA6B66;" parent="1" vertex="1">
          <mxGeometry x="520" y="440" width="120" height="60" as="geometry" />
        </mxCell>
        <mxCell id="qGmY4c33bjeEbuAmrIbD-373" value="" style="endArrow=none;html=1;rounded=0;entryX=0.5;entryY=1;entryDx=0;entryDy=0;exitX=0.5;exitY=0;exitDx=0;exitDy=0;" parent="1" edge="1">
          <mxGeometry width="50" height="50" relative="1" as="geometry">
            <mxPoint x="1109.58" y="440" as="sourcePoint" />
            <mxPoint x="1109.58" y="380" as="targetPoint" />
          </mxGeometry>
        </mxCell>
        <mxCell id="qGmY4c33bjeEbuAmrIbD-374" value="" style="endArrow=none;html=1;rounded=0;entryX=0.5;entryY=1;entryDx=0;entryDy=0;exitX=0.5;exitY=0;exitDx=0;exitDy=0;" parent="1" edge="1">
          <mxGeometry width="50" height="50" relative="1" as="geometry">
            <mxPoint x="579.5799999999999" y="440" as="sourcePoint" />
            <mxPoint x="579.5799999999999" y="380" as="targetPoint" />
          </mxGeometry>
        </mxCell>
        <mxCell id="qGmY4c33bjeEbuAmrIbD-375" value="" style="endArrow=none;html=1;rounded=0;entryX=0.5;entryY=1;entryDx=0;entryDy=0;exitX=0;exitY=0.5;exitDx=0;exitDy=0;" parent="1" source="qGmY4c33bjeEbuAmrIbD-370" target="qGmY4c33bjeEbuAmrIbD-372" edge="1">
          <mxGeometry width="50" height="50" relative="1" as="geometry">
            <mxPoint x="1010" y="500" as="sourcePoint" />
            <mxPoint x="1060" y="450" as="targetPoint" />
            <Array as="points">
              <mxPoint x="580" y="580" />
            </Array>
          </mxGeometry>
        </mxCell>
        <mxCell id="qGmY4c33bjeEbuAmrIbD-376" value="" style="endArrow=none;html=1;rounded=0;entryX=0.5;entryY=1;entryDx=0;entryDy=0;exitX=1;exitY=0.5;exitDx=0;exitDy=0;" parent="1" source="qGmY4c33bjeEbuAmrIbD-370" target="qGmY4c33bjeEbuAmrIbD-371" edge="1">
          <mxGeometry width="50" height="50" relative="1" as="geometry">
            <mxPoint x="1010" y="500" as="sourcePoint" />
            <mxPoint x="1060" y="450" as="targetPoint" />
            <Array as="points">
              <mxPoint x="1110" y="580" />
            </Array>
          </mxGeometry>
        </mxCell>
        <mxCell id="qGmY4c33bjeEbuAmrIbD-377" value="Fecha" style="ellipse;whiteSpace=wrap;html=1;align=center;fillColor=#FFD966;" parent="1" vertex="1">
          <mxGeometry x="400" y="410" width="100" height="40" as="geometry" />
        </mxCell>
        <mxCell id="qGmY4c33bjeEbuAmrIbD-378" value="Hora" style="ellipse;whiteSpace=wrap;html=1;align=center;fillColor=#FFD966;" parent="1" vertex="1">
          <mxGeometry x="400" y="500" width="100" height="40" as="geometry" />
        </mxCell>
        <mxCell id="qGmY4c33bjeEbuAmrIbD-379" value="" style="endArrow=none;html=1;rounded=0;entryX=0;entryY=0;entryDx=0;entryDy=0;exitX=1;exitY=0.5;exitDx=0;exitDy=0;" parent="1" source="qGmY4c33bjeEbuAmrIbD-377" target="qGmY4c33bjeEbuAmrIbD-372" edge="1">
          <mxGeometry width="50" height="50" relative="1" as="geometry">
            <mxPoint x="710" y="470" as="sourcePoint" />
            <mxPoint x="760" y="420" as="targetPoint" />
          </mxGeometry>
        </mxCell>
        <mxCell id="qGmY4c33bjeEbuAmrIbD-380" value="" style="endArrow=none;html=1;rounded=0;entryX=0;entryY=1;entryDx=0;entryDy=0;exitX=1;exitY=0.5;exitDx=0;exitDy=0;" parent="1" source="qGmY4c33bjeEbuAmrIbD-378" target="qGmY4c33bjeEbuAmrIbD-372" edge="1">
          <mxGeometry width="50" height="50" relative="1" as="geometry">
            <mxPoint x="710" y="470" as="sourcePoint" />
            <mxPoint x="760" y="420" as="targetPoint" />
          </mxGeometry>
        </mxCell>
        <mxCell id="qGmY4c33bjeEbuAmrIbD-381" value="&lt;u&gt;IDExcursión&lt;/u&gt;" style="ellipse;whiteSpace=wrap;html=1;align=center;fillColor=#FFD966;" parent="1" vertex="1">
          <mxGeometry x="700" y="630" width="100" height="40" as="geometry" />
        </mxCell>
        <mxCell id="qGmY4c33bjeEbuAmrIbD-382" value="Tipo" style="ellipse;whiteSpace=wrap;html=1;align=center;fillColor=#FFD966;" parent="1" vertex="1">
          <mxGeometry x="900" y="630" width="100" height="40" as="geometry" />
        </mxCell>
        <mxCell id="qGmY4c33bjeEbuAmrIbD-383" value="Vehículo" style="ellipse;whiteSpace=wrap;html=1;align=center;fillColor=#FFD966;" parent="1" vertex="1">
          <mxGeometry x="840" y="700" width="100" height="40" as="geometry" />
        </mxCell>
        <mxCell id="qGmY4c33bjeEbuAmrIbD-384" value="A pie" style="ellipse;whiteSpace=wrap;html=1;align=center;fillColor=#FFD966;" parent="1" vertex="1">
          <mxGeometry x="970" y="700" width="100" height="40" as="geometry" />
        </mxCell>
        <mxCell id="qGmY4c33bjeEbuAmrIbD-385" value="" style="endArrow=none;html=1;rounded=0;entryX=0.25;entryY=1;entryDx=0;entryDy=0;exitX=0.5;exitY=0;exitDx=0;exitDy=0;" parent="1" source="qGmY4c33bjeEbuAmrIbD-381" target="qGmY4c33bjeEbuAmrIbD-370" edge="1">
          <mxGeometry width="50" height="50" relative="1" as="geometry">
            <mxPoint x="890" y="550" as="sourcePoint" />
            <mxPoint x="940" y="500" as="targetPoint" />
          </mxGeometry>
        </mxCell>
        <mxCell id="qGmY4c33bjeEbuAmrIbD-386" value="" style="endArrow=none;html=1;rounded=0;entryX=0.75;entryY=1;entryDx=0;entryDy=0;exitX=0.5;exitY=0;exitDx=0;exitDy=0;" parent="1" source="qGmY4c33bjeEbuAmrIbD-382" target="qGmY4c33bjeEbuAmrIbD-370" edge="1">
          <mxGeometry width="50" height="50" relative="1" as="geometry">
            <mxPoint x="890" y="550" as="sourcePoint" />
            <mxPoint x="940" y="500" as="targetPoint" />
          </mxGeometry>
        </mxCell>
        <mxCell id="qGmY4c33bjeEbuAmrIbD-387" value="" style="endArrow=none;html=1;rounded=0;entryX=0;entryY=1;entryDx=0;entryDy=0;exitX=0.5;exitY=0;exitDx=0;exitDy=0;" parent="1" source="qGmY4c33bjeEbuAmrIbD-383" target="qGmY4c33bjeEbuAmrIbD-382" edge="1">
          <mxGeometry width="50" height="50" relative="1" as="geometry">
            <mxPoint x="890" y="550" as="sourcePoint" />
            <mxPoint x="940" y="500" as="targetPoint" />
          </mxGeometry>
        </mxCell>
        <mxCell id="qGmY4c33bjeEbuAmrIbD-388" value="" style="endArrow=none;html=1;rounded=0;entryX=1;entryY=1;entryDx=0;entryDy=0;exitX=0.5;exitY=0;exitDx=0;exitDy=0;" parent="1" source="qGmY4c33bjeEbuAmrIbD-384" target="qGmY4c33bjeEbuAmrIbD-382" edge="1">
          <mxGeometry width="50" height="50" relative="1" as="geometry">
            <mxPoint x="890" y="550" as="sourcePoint" />
            <mxPoint x="940" y="500" as="targetPoint" />
          </mxGeometry>
        </mxCell>
        <mxCell id="qGmY4c33bjeEbuAmrIbD-389" value="" style="rounded=0;whiteSpace=wrap;html=1;fillColor=none;" parent="1" vertex="1">
          <mxGeometry x="810" y="565" width="80" height="30" as="geometry" />
        </mxCell>
        <mxCell id="qGmY4c33bjeEbuAmrIbD-390" value="N:M" style="text;html=1;strokeColor=none;fillColor=none;align=center;verticalAlign=middle;whiteSpace=wrap;rounded=0;" parent="1" vertex="1">
          <mxGeometry x="1840" y="-20" width="60" height="30" as="geometry" />
        </mxCell>
        <mxCell id="qGmY4c33bjeEbuAmrIbD-391" value="N:M" style="text;html=1;strokeColor=none;fillColor=none;align=center;verticalAlign=middle;whiteSpace=wrap;rounded=0;" parent="1" vertex="1">
          <mxGeometry x="2377.5" y="-20" width="60" height="30" as="geometry" />
        </mxCell>
        <mxCell id="qGmY4c33bjeEbuAmrIbD-392" value="(1,N)" style="text;html=1;strokeColor=none;fillColor=none;align=center;verticalAlign=middle;whiteSpace=wrap;rounded=0;" parent="1" vertex="1">
          <mxGeometry x="1670" y="10" width="60" height="30" as="geometry" />
        </mxCell>
        <mxCell id="qGmY4c33bjeEbuAmrIbD-393" value="(1,M)" style="text;html=1;strokeColor=none;fillColor=none;align=center;verticalAlign=middle;whiteSpace=wrap;rounded=0;" parent="1" vertex="1">
          <mxGeometry x="2030" y="10" width="60" height="30" as="geometry" />
        </mxCell>
        <mxCell id="qGmY4c33bjeEbuAmrIbD-394" value="(1,N)" style="text;html=1;strokeColor=none;fillColor=none;align=center;verticalAlign=middle;whiteSpace=wrap;rounded=0;" parent="1" vertex="1">
          <mxGeometry x="2200" y="10" width="60" height="30" as="geometry" />
        </mxCell>
        <mxCell id="qGmY4c33bjeEbuAmrIbD-395" value="(1,M)" style="text;html=1;strokeColor=none;fillColor=none;align=center;verticalAlign=middle;whiteSpace=wrap;rounded=0;" parent="1" vertex="1">
          <mxGeometry x="2570" y="10" width="60" height="30" as="geometry" />
        </mxCell>
        <mxCell id="qGmY4c33bjeEbuAmrIbD-396" value="N:M" style="text;html=1;strokeColor=none;fillColor=none;align=center;verticalAlign=middle;whiteSpace=wrap;rounded=0;" parent="1" vertex="1">
          <mxGeometry x="3380" y="235" width="60" height="30" as="geometry" />
        </mxCell>
        <mxCell id="qGmY4c33bjeEbuAmrIbD-397" value="(1,N)" style="text;html=1;strokeColor=none;fillColor=none;align=center;verticalAlign=middle;whiteSpace=wrap;rounded=0;" parent="1" vertex="1">
          <mxGeometry x="3100" y="220" width="60" height="30" as="geometry" />
        </mxCell>
        <mxCell id="qGmY4c33bjeEbuAmrIbD-398" value="(1,N)" style="text;html=1;strokeColor=none;fillColor=none;align=center;verticalAlign=middle;whiteSpace=wrap;rounded=0;" parent="1" vertex="1">
          <mxGeometry x="2740" y="10" width="60" height="30" as="geometry" />
        </mxCell>
        <mxCell id="qGmY4c33bjeEbuAmrIbD-399" value="1:N" style="text;html=1;strokeColor=none;fillColor=none;align=center;verticalAlign=middle;whiteSpace=wrap;rounded=0;" parent="1" vertex="1">
          <mxGeometry x="460" y="235" width="60" height="30" as="geometry" />
        </mxCell>
        <mxCell id="qGmY4c33bjeEbuAmrIbD-400" value="(1,N)" style="text;html=1;strokeColor=none;fillColor=none;align=center;verticalAlign=middle;whiteSpace=wrap;rounded=0;" parent="1" vertex="1">
          <mxGeometry x="1500" y="60" width="60" height="30" as="geometry" />
        </mxCell>
        <mxCell id="qGmY4c33bjeEbuAmrIbD-401" value="(1,1)" style="text;html=1;strokeColor=none;fillColor=none;align=center;verticalAlign=middle;whiteSpace=wrap;rounded=0;" parent="1" vertex="1">
          <mxGeometry x="530" y="310" width="60" height="30" as="geometry" />
        </mxCell>
        <mxCell id="qGmY4c33bjeEbuAmrIbD-402" value="N:M" style="text;html=1;strokeColor=none;fillColor=none;align=center;verticalAlign=middle;whiteSpace=wrap;rounded=0;" parent="1" vertex="1">
          <mxGeometry x="980" y="235" width="60" height="30" as="geometry" />
        </mxCell>
        <mxCell id="qGmY4c33bjeEbuAmrIbD-403" value="(0,N)" style="text;html=1;strokeColor=none;fillColor=none;align=center;verticalAlign=middle;whiteSpace=wrap;rounded=0;" parent="1" vertex="1">
          <mxGeometry x="1540" y="140" width="60" height="30" as="geometry" />
        </mxCell>
        <mxCell id="qGmY4c33bjeEbuAmrIbD-404" value="(1,N)" style="text;html=1;strokeColor=none;fillColor=none;align=center;verticalAlign=middle;whiteSpace=wrap;rounded=0;" parent="1" vertex="1">
          <mxGeometry x="1110" y="300" width="60" height="30" as="geometry" />
        </mxCell>
        <mxCell id="qGmY4c33bjeEbuAmrIbD-405" value="N:M" style="text;html=1;strokeColor=none;fillColor=none;align=center;verticalAlign=middle;whiteSpace=wrap;rounded=0;" parent="1" vertex="1">
          <mxGeometry x="1490" y="235" width="60" height="30" as="geometry" />
        </mxCell>
        <mxCell id="qGmY4c33bjeEbuAmrIbD-406" value="(0,N)" style="text;html=1;strokeColor=none;fillColor=none;align=center;verticalAlign=middle;whiteSpace=wrap;rounded=0;" parent="1" vertex="1">
          <mxGeometry x="1620" y="70" width="60" height="30" as="geometry" />
        </mxCell>
        <mxCell id="qGmY4c33bjeEbuAmrIbD-407" value="(1,N)" style="text;html=1;strokeColor=none;fillColor=none;align=center;verticalAlign=middle;whiteSpace=wrap;rounded=0;" parent="1" vertex="1">
          <mxGeometry x="1620" y="310" width="60" height="30" as="geometry" />
        </mxCell>
        <mxCell id="qGmY4c33bjeEbuAmrIbD-408" value="1:N" style="text;html=1;strokeColor=none;fillColor=none;align=center;verticalAlign=middle;whiteSpace=wrap;rounded=0;" parent="1" vertex="1">
          <mxGeometry x="1740" y="240" width="60" height="30" as="geometry" />
        </mxCell>
        <mxCell id="qGmY4c33bjeEbuAmrIbD-409" value="(1,N)" style="text;html=1;strokeColor=none;fillColor=none;align=center;verticalAlign=middle;whiteSpace=wrap;rounded=0;" parent="1" vertex="1">
          <mxGeometry x="2055" y="60" width="60" height="30" as="geometry" />
        </mxCell>
        <mxCell id="qGmY4c33bjeEbuAmrIbD-410" value="(1,1)" style="text;html=1;strokeColor=none;fillColor=none;align=center;verticalAlign=middle;whiteSpace=wrap;rounded=0;" parent="1" vertex="1">
          <mxGeometry x="1830" y="1040" width="60" height="30" as="geometry" />
        </mxCell>
        <mxCell id="qGmY4c33bjeEbuAmrIbD-411" value="1:N" style="text;html=1;strokeColor=none;fillColor=none;align=center;verticalAlign=middle;whiteSpace=wrap;rounded=0;" parent="1" vertex="1">
          <mxGeometry x="2020" y="240" width="60" height="30" as="geometry" />
        </mxCell>
        <mxCell id="qGmY4c33bjeEbuAmrIbD-412" value="(1,1)" style="text;html=1;strokeColor=none;fillColor=none;align=center;verticalAlign=middle;whiteSpace=wrap;rounded=0;" parent="1" vertex="1">
          <mxGeometry x="1680" y="1040" width="60" height="30" as="geometry" />
        </mxCell>
        <mxCell id="qGmY4c33bjeEbuAmrIbD-413" value="(1,N)" style="text;html=1;strokeColor=none;fillColor=none;align=center;verticalAlign=middle;whiteSpace=wrap;rounded=0;" parent="1" vertex="1">
          <mxGeometry x="2142.5" y="60" width="60" height="30" as="geometry" />
        </mxCell>
        <mxCell id="qGmY4c33bjeEbuAmrIbD-414" value="Sueldo" style="ellipse;whiteSpace=wrap;html=1;align=center;fillColor=#FFD966;" parent="1" vertex="1">
          <mxGeometry x="1720" y="780" width="100" height="40" as="geometry" />
        </mxCell>
        <mxCell id="qGmY4c33bjeEbuAmrIbD-415" value="" style="endArrow=none;html=1;rounded=0;entryX=1;entryY=0.5;entryDx=0;entryDy=0;exitX=0;exitY=0.5;exitDx=0;exitDy=0;" parent="1" source="qGmY4c33bjeEbuAmrIbD-414" target="qGmY4c33bjeEbuAmrIbD-252" edge="1">
          <mxGeometry width="50" height="50" relative="1" as="geometry">
            <mxPoint x="1710" y="980" as="sourcePoint" />
            <mxPoint x="1760" y="930" as="targetPoint" />
          </mxGeometry>
        </mxCell>
        <mxCell id="qGmY4c33bjeEbuAmrIbD-416" value="1:N" style="text;html=1;strokeColor=none;fillColor=none;align=center;verticalAlign=middle;whiteSpace=wrap;rounded=0;" parent="1" vertex="1">
          <mxGeometry x="2280" y="235" width="60" height="30" as="geometry" />
        </mxCell>
        <mxCell id="qGmY4c33bjeEbuAmrIbD-417" value="(1,1)" style="text;html=1;strokeColor=none;fillColor=none;align=center;verticalAlign=middle;whiteSpace=wrap;rounded=0;" parent="1" vertex="1">
          <mxGeometry x="2620" y="65" width="60" height="30" as="geometry" />
        </mxCell>
        <mxCell id="qGmY4c33bjeEbuAmrIbD-418" value="(1,N)" style="text;html=1;strokeColor=none;fillColor=none;align=center;verticalAlign=middle;whiteSpace=wrap;rounded=0;" parent="1" vertex="1">
          <mxGeometry x="2360" y="1167.5" width="60" height="30" as="geometry" />
        </mxCell>
        <mxCell id="qGmY4c33bjeEbuAmrIbD-419" value="1:N" style="text;html=1;strokeColor=none;fillColor=none;align=center;verticalAlign=middle;whiteSpace=wrap;rounded=0;" parent="1" vertex="1">
          <mxGeometry x="820" y="300" width="60" height="30" as="geometry" />
        </mxCell>
        <mxCell id="qGmY4c33bjeEbuAmrIbD-420" value="(0,1)" style="text;html=1;strokeColor=none;fillColor=none;align=center;verticalAlign=middle;whiteSpace=wrap;rounded=0;" parent="1" vertex="1">
          <mxGeometry x="630" y="330" width="60" height="30" as="geometry" />
        </mxCell>
        <mxCell id="qGmY4c33bjeEbuAmrIbD-421" value="(0,1)" style="text;html=1;strokeColor=none;fillColor=none;align=center;verticalAlign=middle;whiteSpace=wrap;rounded=0;" parent="1" vertex="1">
          <mxGeometry x="1000" y="330" width="60" height="30" as="geometry" />
        </mxCell>
        <mxCell id="qGmY4c33bjeEbuAmrIbD-422" value="N:1" style="text;html=1;strokeColor=none;fillColor=none;align=center;verticalAlign=middle;whiteSpace=wrap;rounded=0;" parent="1" vertex="1">
          <mxGeometry x="1490" y="455" width="60" height="30" as="geometry" />
        </mxCell>
        <mxCell id="qGmY4c33bjeEbuAmrIbD-423" value="(0,N)" style="text;html=1;strokeColor=none;fillColor=none;align=center;verticalAlign=middle;whiteSpace=wrap;rounded=0;" parent="1" vertex="1">
          <mxGeometry x="1620" y="385" width="60" height="30" as="geometry" />
        </mxCell>
        <mxCell id="qGmY4c33bjeEbuAmrIbD-424" value="(0,1)" style="text;html=1;strokeColor=none;fillColor=none;align=center;verticalAlign=middle;whiteSpace=wrap;rounded=0;" parent="1" vertex="1">
          <mxGeometry x="1630" y="525" width="60" height="30" as="geometry" />
        </mxCell>
        <mxCell id="qGmY4c33bjeEbuAmrIbD-425" value="N:M" style="text;html=1;strokeColor=none;fillColor=none;align=center;verticalAlign=middle;whiteSpace=wrap;rounded=0;" parent="1" vertex="1">
          <mxGeometry x="1120" y="495" width="60" height="30" as="geometry" />
        </mxCell>
        <mxCell id="qGmY4c33bjeEbuAmrIbD-426" value="(1,N)" style="text;html=1;strokeColor=none;fillColor=none;align=center;verticalAlign=middle;whiteSpace=wrap;rounded=0;" parent="1" vertex="1">
          <mxGeometry x="1110" y="390" width="60" height="30" as="geometry" />
        </mxCell>
        <mxCell id="qGmY4c33bjeEbuAmrIbD-427" value="(1,N)" style="text;html=1;strokeColor=none;fillColor=none;align=center;verticalAlign=middle;whiteSpace=wrap;rounded=0;" parent="1" vertex="1">
          <mxGeometry x="900" y="550" width="60" height="30" as="geometry" />
        </mxCell>
        <mxCell id="qGmY4c33bjeEbuAmrIbD-428" value="1:N" style="text;html=1;strokeColor=none;fillColor=none;align=center;verticalAlign=middle;whiteSpace=wrap;rounded=0;" parent="1" vertex="1">
          <mxGeometry x="640" y="455" width="60" height="30" as="geometry" />
        </mxCell>
        <mxCell id="qGmY4c33bjeEbuAmrIbD-429" value="(0,N)" style="text;html=1;strokeColor=none;fillColor=none;align=center;verticalAlign=middle;whiteSpace=wrap;rounded=0;" parent="1" vertex="1">
          <mxGeometry x="580" y="390" width="60" height="30" as="geometry" />
        </mxCell>
        <mxCell id="qGmY4c33bjeEbuAmrIbD-430" value="(0,1)" style="text;html=1;strokeColor=none;fillColor=none;align=center;verticalAlign=middle;whiteSpace=wrap;rounded=0;" parent="1" vertex="1">
          <mxGeometry x="740" y="550" width="60" height="30" as="geometry" />
        </mxCell>
        <mxCell id="qGmY4c33bjeEbuAmrIbD-431" value="1:N" style="text;html=1;strokeColor=none;fillColor=none;align=center;verticalAlign=middle;whiteSpace=wrap;rounded=0;" parent="1" vertex="1">
          <mxGeometry x="1500" y="675" width="60" height="30" as="geometry" />
        </mxCell>
        <mxCell id="qGmY4c33bjeEbuAmrIbD-432" value="(1,N)" style="text;html=1;strokeColor=none;fillColor=none;align=center;verticalAlign=middle;whiteSpace=wrap;rounded=0;" parent="1" vertex="1">
          <mxGeometry x="1630" y="610" width="60" height="30" as="geometry" />
        </mxCell>
        <mxCell id="qGmY4c33bjeEbuAmrIbD-433" value="(1,1)" style="text;html=1;strokeColor=none;fillColor=none;align=center;verticalAlign=middle;whiteSpace=wrap;rounded=0;" parent="1" vertex="1">
          <mxGeometry x="1620" y="750" width="60" height="30" as="geometry" />
        </mxCell>
        <mxCell id="qGmY4c33bjeEbuAmrIbD-434" value="1:N" style="text;html=1;strokeColor=none;fillColor=none;align=center;verticalAlign=middle;whiteSpace=wrap;rounded=0;" parent="1" vertex="1">
          <mxGeometry x="2070" y="950" width="60" height="30" as="geometry" />
        </mxCell>
        <mxCell id="qGmY4c33bjeEbuAmrIbD-435" value="(1,N)" style="text;html=1;strokeColor=none;fillColor=none;align=center;verticalAlign=middle;whiteSpace=wrap;rounded=0;" parent="1" vertex="1">
          <mxGeometry x="1940" y="980" width="60" height="30" as="geometry" />
        </mxCell>
        <mxCell id="qGmY4c33bjeEbuAmrIbD-436" value="(1,1)" style="text;html=1;strokeColor=none;fillColor=none;align=center;verticalAlign=middle;whiteSpace=wrap;rounded=0;" parent="1" vertex="1">
          <mxGeometry x="2202.5" y="980" width="60" height="30" as="geometry" />
        </mxCell>
        <mxCell id="qGmY4c33bjeEbuAmrIbD-437" value="N:M" style="text;html=1;strokeColor=none;fillColor=none;align=center;verticalAlign=middle;whiteSpace=wrap;rounded=0;" parent="1" vertex="1">
          <mxGeometry x="2070" y="1240" width="60" height="30" as="geometry" />
        </mxCell>
        <mxCell id="qGmY4c33bjeEbuAmrIbD-438" value="(1,N)" style="text;html=1;strokeColor=none;fillColor=none;align=center;verticalAlign=middle;whiteSpace=wrap;rounded=0;" parent="1" vertex="1">
          <mxGeometry x="1500" y="1040" width="60" height="30" as="geometry" />
        </mxCell>
        <mxCell id="qGmY4c33bjeEbuAmrIbD-439" value="(1,N)" style="text;html=1;strokeColor=none;fillColor=none;align=center;verticalAlign=middle;whiteSpace=wrap;rounded=0;" parent="1" vertex="1">
          <mxGeometry x="2202.5" y="1167.5" width="60" height="30" as="geometry" />
        </mxCell>
        <mxCell id="qGmY4c33bjeEbuAmrIbD-440" value="Capacidad" style="ellipse;whiteSpace=wrap;html=1;align=center;fillColor=#FFD966;" parent="1" vertex="1">
          <mxGeometry x="650" y="280" width="100" height="40" as="geometry" />
        </mxCell>
        <mxCell id="qGmY4c33bjeEbuAmrIbD-441" value="Categoría" style="ellipse;whiteSpace=wrap;html=1;align=center;fillColor=#FFD966;" parent="1" vertex="1">
          <mxGeometry x="400" y="280" width="100" height="40" as="geometry" />
        </mxCell>
        <mxCell id="qGmY4c33bjeEbuAmrIbD-442" value="&lt;u&gt;IDAlojamiento&lt;/u&gt;" style="ellipse;whiteSpace=wrap;html=1;align=center;fillColor=#FFD966;" parent="1" vertex="1">
          <mxGeometry x="400" y="340" width="100" height="40" as="geometry" />
        </mxCell>
        <mxCell id="qGmY4c33bjeEbuAmrIbD-443" value="" style="endArrow=none;html=1;rounded=0;entryX=0;entryY=0.5;entryDx=0;entryDy=0;exitX=1;exitY=0.5;exitDx=0;exitDy=0;" parent="1" source="qGmY4c33bjeEbuAmrIbD-442" target="qGmY4c33bjeEbuAmrIbD-357" edge="1">
          <mxGeometry width="50" height="50" relative="1" as="geometry">
            <mxPoint x="650" y="480" as="sourcePoint" />
            <mxPoint x="700" y="430" as="targetPoint" />
          </mxGeometry>
        </mxCell>
        <mxCell id="qGmY4c33bjeEbuAmrIbD-444" value="" style="endArrow=none;html=1;rounded=0;entryX=0;entryY=1;entryDx=0;entryDy=0;exitX=1;exitY=0.5;exitDx=0;exitDy=0;" parent="1" source="qGmY4c33bjeEbuAmrIbD-441" target="qGmY4c33bjeEbuAmrIbD-401" edge="1">
          <mxGeometry width="50" height="50" relative="1" as="geometry">
            <mxPoint x="650" y="480" as="sourcePoint" />
            <mxPoint x="700" y="430" as="targetPoint" />
          </mxGeometry>
        </mxCell>
        <mxCell id="qGmY4c33bjeEbuAmrIbD-445" value="" style="endArrow=none;html=1;rounded=0;entryX=1;entryY=0;entryDx=0;entryDy=0;exitX=0;exitY=0.5;exitDx=0;exitDy=0;" parent="1" source="qGmY4c33bjeEbuAmrIbD-440" target="qGmY4c33bjeEbuAmrIbD-357" edge="1">
          <mxGeometry width="50" height="50" relative="1" as="geometry">
            <mxPoint x="650" y="480" as="sourcePoint" />
            <mxPoint x="700" y="430" as="targetPoint" />
          </mxGeometry>
        </mxCell>
        <mxCell id="qGmY4c33bjeEbuAmrIbD-446" value="&lt;u&gt;IDÁrea&lt;/u&gt;" style="ellipse;whiteSpace=wrap;html=1;align=center;fillColor=#FFD966;" parent="1" vertex="1">
          <mxGeometry x="2090" y="-50" width="100" height="40" as="geometry" />
        </mxCell>
        <mxCell id="qGmY4c33bjeEbuAmrIbD-447" value="" style="endArrow=none;html=1;rounded=0;entryX=0.5;entryY=1;entryDx=0;entryDy=0;exitX=0.5;exitY=0;exitDx=0;exitDy=0;" parent="1" source="qGmY4c33bjeEbuAmrIbD-230" target="qGmY4c33bjeEbuAmrIbD-446" edge="1">
          <mxGeometry width="50" height="50" relative="1" as="geometry">
            <mxPoint x="1910" y="160" as="sourcePoint" />
            <mxPoint x="1960" y="110" as="targetPoint" />
          </mxGeometry>
        </mxCell>
        <mxCell id="qGmY4c33bjeEbuAmrIbD-448" value="&lt;span style=&quot;border-color: var(--border-color);&quot;&gt;NºParques&lt;/span&gt;" style="ellipse;whiteSpace=wrap;html=1;align=center;fillColor=#FFD966;" parent="1" vertex="1">
          <mxGeometry x="1430" y="305" width="100" height="40" as="geometry" />
        </mxCell>
        <mxCell id="qGmY4c33bjeEbuAmrIbD-449" value="&lt;span style=&quot;border-color: var(--border-color);&quot;&gt;&lt;u&gt;Nombre&lt;/u&gt;&lt;/span&gt;" style="ellipse;whiteSpace=wrap;html=1;align=center;fillColor=#FFD966;" parent="1" vertex="1">
          <mxGeometry x="1710" y="340" width="100" height="40" as="geometry" />
        </mxCell>
        <mxCell id="qGmY4c33bjeEbuAmrIbD-450" value="&lt;span style=&quot;border-color: var(--border-color);&quot;&gt;SuperficieTotal&lt;/span&gt;" style="ellipse;whiteSpace=wrap;html=1;align=center;fillColor=#FFD966;" parent="1" vertex="1">
          <mxGeometry x="1430" y="370" width="100" height="40" as="geometry" />
        </mxCell>
        <mxCell id="qGmY4c33bjeEbuAmrIbD-451" value="" style="endArrow=none;html=1;rounded=0;entryX=0;entryY=0.25;entryDx=0;entryDy=0;exitX=1;exitY=0.5;exitDx=0;exitDy=0;" parent="1" source="qGmY4c33bjeEbuAmrIbD-448" target="qGmY4c33bjeEbuAmrIbD-264" edge="1">
          <mxGeometry width="50" height="50" relative="1" as="geometry">
            <mxPoint x="1500" y="480" as="sourcePoint" />
            <mxPoint x="1550" y="430" as="targetPoint" />
          </mxGeometry>
        </mxCell>
        <mxCell id="qGmY4c33bjeEbuAmrIbD-452" value="" style="endArrow=none;html=1;rounded=0;entryX=0;entryY=0.75;entryDx=0;entryDy=0;exitX=1;exitY=0.5;exitDx=0;exitDy=0;" parent="1" source="qGmY4c33bjeEbuAmrIbD-450" target="qGmY4c33bjeEbuAmrIbD-264" edge="1">
          <mxGeometry width="50" height="50" relative="1" as="geometry">
            <mxPoint x="1500" y="480" as="sourcePoint" />
            <mxPoint x="1550" y="430" as="targetPoint" />
          </mxGeometry>
        </mxCell>
        <mxCell id="qGmY4c33bjeEbuAmrIbD-453" value="" style="endArrow=none;html=1;rounded=0;entryX=1;entryY=0.5;entryDx=0;entryDy=0;exitX=0;exitY=0.5;exitDx=0;exitDy=0;" parent="1" source="qGmY4c33bjeEbuAmrIbD-449" target="qGmY4c33bjeEbuAmrIbD-264" edge="1">
          <mxGeometry width="50" height="50" relative="1" as="geometry">
            <mxPoint x="1500" y="480" as="sourcePoint" />
            <mxPoint x="1550" y="430" as="targetPoint" />
          </mxGeometry>
        </mxCell>
        <mxCell id="qGmY4c33bjeEbuAmrIbD-454" value="&lt;span style=&quot;border-color: var(--border-color);&quot;&gt;&lt;u&gt;IDOrganismo&lt;/u&gt;&lt;/span&gt;" style="ellipse;whiteSpace=wrap;html=1;align=center;fillColor=#FFD966;" parent="1" vertex="1">
          <mxGeometry x="1430" y="560" width="100" height="40" as="geometry" />
        </mxCell>
        <mxCell id="qGmY4c33bjeEbuAmrIbD-455" value="" style="endArrow=none;html=1;rounded=0;entryX=1;entryY=0.5;entryDx=0;entryDy=0;exitX=0;exitY=0.5;exitDx=0;exitDy=0;" parent="1" edge="1">
          <mxGeometry width="50" height="50" relative="1" as="geometry">
            <mxPoint x="1570" y="579.4300000000001" as="sourcePoint" />
            <mxPoint x="1530" y="579.4300000000001" as="targetPoint" />
          </mxGeometry>
        </mxCell>
        <mxCell id="qGmY4c33bjeEbuAmrIbD-456" value="ORGANISMO(&lt;font color=&quot;#ff1919&quot;&gt;&lt;u&gt;IDOrganismo&lt;/u&gt;&lt;/font&gt;)" style="text;html=1;strokeColor=none;fillColor=none;align=center;verticalAlign=middle;whiteSpace=wrap;rounded=0;" parent="1" vertex="1">
          <mxGeometry x="-780" y="180" width="540" height="30" as="geometry" />
        </mxCell>
        <mxCell id="qGmY4c33bjeEbuAmrIbD-457" value="PERSONAL(&lt;font color=&quot;#ff1919&quot;&gt;&lt;u&gt;DNI&lt;/u&gt;&lt;/font&gt;, nombre, direccion, sueldo, telefonoDomicilio, telefonoMovil, nºEntrada, tipo, especialidad&amp;nbsp;&lt;b&gt;NºSS, &lt;/b&gt;&lt;font color=&quot;#ff0000&quot;&gt;&lt;i&gt;IDOrganismo&lt;/i&gt;&lt;/font&gt;&lt;b&gt;,&amp;nbsp;&lt;/b&gt;&lt;font color=&quot;#ff1919&quot;&gt;&lt;i&gt;idArea&lt;/i&gt;&lt;/font&gt;)&amp;nbsp;" style="text;html=1;strokeColor=none;fillColor=none;align=center;verticalAlign=middle;whiteSpace=wrap;rounded=0;" parent="1" vertex="1">
          <mxGeometry x="-800" y="257.5" width="740" height="30" as="geometry" />
        </mxCell>
        <mxCell id="qGmY4c33bjeEbuAmrIbD-458" value="TITULACION(&lt;font color=&quot;#ff1919&quot;&gt;&lt;i style=&quot;&quot;&gt;DNI&lt;/i&gt;&lt;/font&gt;, &lt;font color=&quot;#ff1919&quot;&gt;&lt;u&gt;titulacion&lt;/u&gt;&lt;/font&gt;)" style="text;html=1;strokeColor=none;fillColor=none;align=center;verticalAlign=middle;whiteSpace=wrap;rounded=0;" parent="1" vertex="1">
          <mxGeometry x="-880" y="320" width="620" height="30" as="geometry" />
        </mxCell>
        <mxCell id="qGmY4c33bjeEbuAmrIbD-459" value="VEHICULO(&lt;font color=&quot;#ff1919&quot;&gt;&lt;u&gt;matricula&lt;/u&gt;&lt;/font&gt;, tipoVehiculo, &lt;font color=&quot;#ff1919&quot;&gt;&lt;i&gt;DNI&lt;/i&gt;&lt;/font&gt;)" style="text;html=1;strokeColor=none;fillColor=none;align=center;verticalAlign=middle;whiteSpace=wrap;rounded=0;" parent="1" vertex="1">
          <mxGeometry x="-873" y="370" width="620" height="30" as="geometry" />
        </mxCell>
        <mxCell id="qGmY4c33bjeEbuAmrIbD-461" value="PROYECTO(&lt;font color=&quot;#ff1919&quot;&gt;&lt;u&gt;codProyecto&lt;/u&gt;&lt;/font&gt;, presupuesto, periodoRealizacion, &lt;font color=&quot;#ff1919&quot;&gt;&lt;i&gt;DNI&lt;/i&gt;&lt;/font&gt;)&amp;nbsp;" style="text;html=1;strokeColor=none;fillColor=none;align=center;verticalAlign=middle;whiteSpace=wrap;rounded=0;" parent="1" vertex="1">
          <mxGeometry x="-873" y="415" width="620" height="30" as="geometry" />
        </mxCell>
        <mxCell id="qGmY4c33bjeEbuAmrIbD-462" value="ALOJAMIENTO(&lt;font color=&quot;#ff1919&quot;&gt;&lt;u&gt;IDAlojamiento&lt;/u&gt;&lt;/font&gt;, categoria, capacidad, &lt;font color=&quot;#ff1919&quot;&gt;&lt;i&gt;IDParque&lt;/i&gt;&lt;/font&gt;)" style="text;html=1;strokeColor=none;fillColor=none;align=center;verticalAlign=middle;whiteSpace=wrap;rounded=0;" parent="1" vertex="1">
          <mxGeometry x="-1370" y="140" width="540" height="30" as="geometry" />
        </mxCell>
        <mxCell id="qGmY4c33bjeEbuAmrIbD-463" value="REALIZA(fecha, hora, &lt;font color=&quot;#ff1919&quot;&gt;&lt;u&gt;&lt;i&gt;IDAlojamiento&lt;/i&gt;&lt;/u&gt;&lt;/font&gt;, &lt;font color=&quot;#ff1919&quot;&gt;&lt;u&gt;&lt;i&gt;IDExcursion&lt;/i&gt;&lt;/u&gt;&lt;/font&gt;)" style="text;html=1;strokeColor=none;fillColor=none;align=center;verticalAlign=middle;whiteSpace=wrap;rounded=0;" parent="1" vertex="1">
          <mxGeometry x="-1385" y="207.5" width="540" height="30" as="geometry" />
        </mxCell>
        <mxCell id="qGmY4c33bjeEbuAmrIbD-464" value="EXCURSION(&lt;font color=&quot;#ff1919&quot;&gt;&lt;u&gt;IDExcursion&lt;/u&gt;&lt;/font&gt;, a pie, vehiculo, &lt;font color=&quot;#ff1919&quot;&gt;&lt;i&gt;IDAlojamiento&lt;/i&gt;&lt;/font&gt;)" style="text;html=1;strokeColor=none;fillColor=none;align=center;verticalAlign=middle;whiteSpace=wrap;rounded=0;" parent="1" vertex="1">
          <mxGeometry x="-1385" y="257.5" width="540" height="30" as="geometry" />
        </mxCell>
        <mxCell id="qGmY4c33bjeEbuAmrIbD-465" value="VISITANTE(&lt;font color=&quot;#ff1919&quot;&gt;&lt;u&gt;DNIVisitante&lt;/u&gt;&lt;/font&gt;, nombre, domicilio, profesion, &lt;font color=&quot;#ff1919&quot;&gt;&lt;i&gt;IDAlojamiento&lt;/i&gt;&lt;/font&gt;)" style="text;html=1;strokeColor=none;fillColor=none;align=center;verticalAlign=middle;whiteSpace=wrap;rounded=0;" parent="1" vertex="1">
          <mxGeometry x="-1400" y="367.5" width="540" height="30" as="geometry" />
        </mxCell>
        <mxCell id="qGmY4c33bjeEbuAmrIbD-466" value="ASISTE(&lt;font color=&quot;#ff1919&quot;&gt;&lt;u&gt;&lt;i&gt;IDExcursion&lt;/i&gt;&lt;/u&gt;&lt;/font&gt;, &lt;font color=&quot;#ff1919&quot;&gt;&lt;u&gt;&lt;i&gt;DNIVisitante&lt;/i&gt;&lt;/u&gt;&lt;/font&gt;)" style="text;html=1;strokeColor=none;fillColor=none;align=center;verticalAlign=middle;whiteSpace=wrap;rounded=0;" parent="1" vertex="1">
          <mxGeometry x="-1390" y="312.5" width="540" height="30" as="geometry" />
        </mxCell>
        <mxCell id="qGmY4c33bjeEbuAmrIbD-467" value="VISITA(&lt;font color=&quot;#ff1919&quot;&gt;&lt;u&gt;&lt;i&gt;IDParque&lt;/i&gt;&lt;/u&gt;&lt;/font&gt;, &lt;font color=&quot;#ff1919&quot;&gt;&lt;u&gt;&lt;i&gt;DNIVisitante&lt;/i&gt;&lt;/u&gt;&lt;/font&gt;)" style="text;html=1;strokeColor=none;fillColor=none;align=center;verticalAlign=middle;whiteSpace=wrap;rounded=0;" parent="1" vertex="1">
          <mxGeometry x="-1385" y="412.5" width="540" height="30" as="geometry" />
        </mxCell>
        <mxCell id="dVA78G9aW-Jk14Yz-XcA-1" value="" style="endArrow=classic;html=1;rounded=0;exitX=0.471;exitY=-0.08;exitDx=0;exitDy=0;exitPerimeter=0;entryX=0.213;entryY=0.949;entryDx=0;entryDy=0;entryPerimeter=0;" edge="1" parent="1" source="qGmY4c33bjeEbuAmrIbD-228" target="qGmY4c33bjeEbuAmrIbD-220">
          <mxGeometry width="50" height="50" relative="1" as="geometry">
            <mxPoint x="-380" y="130" as="sourcePoint" />
            <mxPoint x="-330" y="80" as="targetPoint" />
            <Array as="points">
              <mxPoint x="-506" />
              <mxPoint x="-640" />
            </Array>
          </mxGeometry>
        </mxCell>
        <mxCell id="dVA78G9aW-Jk14Yz-XcA-2" value="" style="endArrow=classic;html=1;rounded=0;exitX=0.576;exitY=1.135;exitDx=0;exitDy=0;exitPerimeter=0;entryX=0.207;entryY=-0.002;entryDx=0;entryDy=0;entryPerimeter=0;" edge="1" parent="1" source="qGmY4c33bjeEbuAmrIbD-228" target="qGmY4c33bjeEbuAmrIbD-229">
          <mxGeometry width="50" height="50" relative="1" as="geometry">
            <mxPoint x="-380" y="130" as="sourcePoint" />
            <mxPoint x="-330" y="80" as="targetPoint" />
            <Array as="points">
              <mxPoint x="-449" y="70" />
              <mxPoint x="-640" y="70" />
            </Array>
          </mxGeometry>
        </mxCell>
        <mxCell id="dVA78G9aW-Jk14Yz-XcA-3" value="" style="endArrow=classic;html=1;rounded=0;exitX=0.812;exitY=1.057;exitDx=0;exitDy=0;exitPerimeter=0;entryX=0.406;entryY=-0.129;entryDx=0;entryDy=0;entryPerimeter=0;" edge="1" parent="1" source="qGmY4c33bjeEbuAmrIbD-229" target="qGmY4c33bjeEbuAmrIbD-456">
          <mxGeometry width="50" height="50" relative="1" as="geometry">
            <mxPoint x="-380" y="250" as="sourcePoint" />
            <mxPoint x="-330" y="200" as="targetPoint" />
            <Array as="points">
              <mxPoint x="-312" y="160" />
              <mxPoint x="-560" y="160" />
            </Array>
          </mxGeometry>
        </mxCell>
        <mxCell id="dVA78G9aW-Jk14Yz-XcA-4" value="" style="endArrow=classic;html=1;rounded=0;exitX=0.878;exitY=0.032;exitDx=0;exitDy=0;exitPerimeter=0;" edge="1" parent="1" source="qGmY4c33bjeEbuAmrIbD-457">
          <mxGeometry width="50" height="50" relative="1" as="geometry">
            <mxPoint x="-310" y="230" as="sourcePoint" />
            <mxPoint x="-560" y="210" as="targetPoint" />
            <Array as="points">
              <mxPoint x="-150" y="230" />
              <mxPoint x="-560" y="230" />
            </Array>
          </mxGeometry>
        </mxCell>
        <mxCell id="dVA78G9aW-Jk14Yz-XcA-5" value="" style="endArrow=classic;html=1;rounded=0;entryX=0.296;entryY=0.333;entryDx=0;entryDy=0;entryPerimeter=0;exitX=0.945;exitY=0.032;exitDx=0;exitDy=0;exitPerimeter=0;" edge="1" parent="1" source="qGmY4c33bjeEbuAmrIbD-457" target="qGmY4c33bjeEbuAmrIbD-222">
          <mxGeometry width="50" height="50" relative="1" as="geometry">
            <mxPoint x="-100" y="250" as="sourcePoint" />
            <mxPoint x="20" y="290" as="targetPoint" />
            <Array as="points">
              <mxPoint x="-100" y="180" />
            </Array>
          </mxGeometry>
        </mxCell>
        <mxCell id="dVA78G9aW-Jk14Yz-XcA-6" value="" style="endArrow=classic;html=1;rounded=0;exitX=0.601;exitY=1.165;exitDx=0;exitDy=0;exitPerimeter=0;entryX=0.373;entryY=-0.071;entryDx=0;entryDy=0;entryPerimeter=0;" edge="1" parent="1" source="qGmY4c33bjeEbuAmrIbD-221" target="qGmY4c33bjeEbuAmrIbD-222">
          <mxGeometry width="50" height="50" relative="1" as="geometry">
            <mxPoint x="-30" y="340" as="sourcePoint" />
            <mxPoint x="20" y="290" as="targetPoint" />
            <Array as="points">
              <mxPoint x="135" y="140" />
              <mxPoint x="20" y="140" />
            </Array>
          </mxGeometry>
        </mxCell>
        <mxCell id="dVA78G9aW-Jk14Yz-XcA-7" value="" style="endArrow=classic;html=1;rounded=0;exitX=0.475;exitY=0.008;exitDx=0;exitDy=0;exitPerimeter=0;entryX=0.369;entryY=1.184;entryDx=0;entryDy=0;entryPerimeter=0;" edge="1" parent="1" source="qGmY4c33bjeEbuAmrIbD-223" target="qGmY4c33bjeEbuAmrIbD-222">
          <mxGeometry width="50" height="50" relative="1" as="geometry">
            <mxPoint x="-30" y="340" as="sourcePoint" />
            <mxPoint x="20" y="290" as="targetPoint" />
            <Array as="points">
              <mxPoint x="67" y="260" />
              <mxPoint x="19" y="260" />
            </Array>
          </mxGeometry>
        </mxCell>
        <mxCell id="dVA78G9aW-Jk14Yz-XcA-10" value="" style="endArrow=classic;html=1;rounded=0;exitX=0.428;exitY=-0.129;exitDx=0;exitDy=0;exitPerimeter=0;entryX=0.134;entryY=1.076;entryDx=0;entryDy=0;entryPerimeter=0;" edge="1" parent="1" source="qGmY4c33bjeEbuAmrIbD-226" target="qGmY4c33bjeEbuAmrIbD-225">
          <mxGeometry width="50" height="50" relative="1" as="geometry">
            <mxPoint x="100" y="530" as="sourcePoint" />
            <mxPoint x="150" y="480" as="targetPoint" />
            <Array as="points">
              <mxPoint x="-60" y="630" />
              <mxPoint x="-238" y="630" />
            </Array>
          </mxGeometry>
        </mxCell>
        <mxCell id="dVA78G9aW-Jk14Yz-XcA-11" value="" style="endArrow=classic;html=1;rounded=0;exitX=0.628;exitY=-0.129;exitDx=0;exitDy=0;exitPerimeter=0;" edge="1" parent="1" source="qGmY4c33bjeEbuAmrIbD-226">
          <mxGeometry width="50" height="50" relative="1" as="geometry">
            <mxPoint x="-110" y="570" as="sourcePoint" />
            <mxPoint x="-60" y="520" as="targetPoint" />
          </mxGeometry>
        </mxCell>
        <mxCell id="dVA78G9aW-Jk14Yz-XcA-12" value="" style="endArrow=classic;html=1;rounded=0;exitX=0.606;exitY=1.184;exitDx=0;exitDy=0;exitPerimeter=0;entryX=0.184;entryY=-0.017;entryDx=0;entryDy=0;entryPerimeter=0;" edge="1" parent="1" source="qGmY4c33bjeEbuAmrIbD-223" target="qGmY4c33bjeEbuAmrIbD-224">
          <mxGeometry width="50" height="50" relative="1" as="geometry">
            <mxPoint x="-110" y="570" as="sourcePoint" />
            <mxPoint x="-60" y="520" as="targetPoint" />
            <Array as="points">
              <mxPoint x="137" y="380" />
              <mxPoint x="-190" y="380" />
            </Array>
          </mxGeometry>
        </mxCell>
        <mxCell id="dVA78G9aW-Jk14Yz-XcA-13" value="" style="endArrow=classic;html=1;rounded=0;exitX=0.552;exitY=1.145;exitDx=0;exitDy=0;exitPerimeter=0;entryX=0.136;entryY=-0.061;entryDx=0;entryDy=0;entryPerimeter=0;" edge="1" parent="1" source="qGmY4c33bjeEbuAmrIbD-223" target="qGmY4c33bjeEbuAmrIbD-225">
          <mxGeometry width="50" height="50" relative="1" as="geometry">
            <mxPoint x="-110" y="570" as="sourcePoint" />
            <mxPoint x="-60" y="520" as="targetPoint" />
            <Array as="points">
              <mxPoint x="108" y="360" />
              <mxPoint x="-240" y="360" />
            </Array>
          </mxGeometry>
        </mxCell>
        <mxCell id="dVA78G9aW-Jk14Yz-XcA-14" value="" style="endArrow=classic;html=1;rounded=0;exitX=0.524;exitY=-0.051;exitDx=0;exitDy=0;exitPerimeter=0;entryX=0.364;entryY=1.184;entryDx=0;entryDy=0;entryPerimeter=0;" edge="1" parent="1" source="qGmY4c33bjeEbuAmrIbD-221" target="qGmY4c33bjeEbuAmrIbD-220">
          <mxGeometry width="50" height="50" relative="1" as="geometry">
            <mxPoint x="-110" y="220" as="sourcePoint" />
            <mxPoint x="-60" y="170" as="targetPoint" />
            <Array as="points">
              <mxPoint x="93" y="-10" />
              <mxPoint x="-550" y="-20" />
            </Array>
          </mxGeometry>
        </mxCell>
      </root>
    </mxGraphModel>
  </diagram>
</mxfile>
